<svg version="1.0" preserveAspectRatio="xMidYMid meet" viewBox="75 106.499997444 213.74999999999997 155.999996256" zoomAndPan="magnify" xmlns:xlink="http://www.w3.org/1999/xlink" xmlns="http://www.w3.org/2000/svg" style="max-height: 500px" width="213.74999999999997" height="155.999996256"><defs><g/><clipPath id="2a12b5f544"><path clip-rule="nonzero" d="M 111.058594 142.945312 L 137.363281 142.945312 L 137.363281 259 L 111.058594 259 Z M 111.058594 142.945312"/></clipPath><clipPath id="cec6ab01a0"><path clip-rule="nonzero" d="M 112.558594 142.945312 L 135.863281 142.945312 C 136.261719 142.945312 136.644531 143.101562 136.925781 143.382812 C 137.207031 143.667969 137.363281 144.046875 137.363281 144.445312 L 137.363281 257.492188 C 137.363281 257.890625 137.207031 258.273438 136.925781 258.554688 C 136.644531 258.835938 136.261719 258.992188 135.863281 258.992188 L 112.558594 258.992188 C 112.164062 258.992188 111.78125 258.835938 111.5 258.554688 C 111.21875 258.273438 111.058594 257.890625 111.058594 257.492188 L 111.058594 144.445312 C 111.058594 144.046875 111.21875 143.667969 111.5 143.382812 C 111.78125 143.101562 112.164062 142.945312 112.558594 142.945312 Z M 112.558594 142.945312"/></clipPath><clipPath id="d2bde20683"><path clip-rule="nonzero" d="M 0.0585938 0.945312 L 26.363281 0.945312 L 26.363281 117 L 0.0585938 117 Z M 0.0585938 0.945312"/></clipPath><clipPath id="6b6cdf23f1"><path clip-rule="nonzero" d="M 1.558594 0.945312 L 24.863281 0.945312 C 25.261719 0.945312 25.644531 1.101562 25.925781 1.382812 C 26.207031 1.667969 26.363281 2.046875 26.363281 2.445312 L 26.363281 115.492188 C 26.363281 115.890625 26.207031 116.273438 25.925781 116.554688 C 25.644531 116.835938 25.261719 116.992188 24.863281 116.992188 L 1.558594 116.992188 C 1.164062 116.992188 0.78125 116.835938 0.5 116.554688 C 0.21875 116.273438 0.0585938 115.890625 0.0585938 115.492188 L 0.0585938 2.445312 C 0.0585938 2.046875 0.21875 1.667969 0.5 1.382812 C 0.78125 1.101562 1.164062 0.945312 1.558594 0.945312 Z M 1.558594 0.945312"/></clipPath><clipPath id="338f8e0934"><rect height="117" y="0" width="27" x="0"/></clipPath><clipPath id="4d311d39b8"><path clip-rule="nonzero" d="M 84.40625 116.007812 L 189.320312 116.007812 L 189.320312 135.671875 L 84.40625 135.671875 Z M 84.40625 116.007812"/></clipPath><clipPath id="69bcb52915"><path clip-rule="nonzero" d="M 187.070312 135.671875 L 86.703125 135.671875 C 86.105469 135.671875 85.535156 135.433594 85.113281 135.011719 C 84.6875 134.589844 84.453125 134.015625 84.453125 133.421875 L 84.453125 118.257812 C 84.453125 117.660156 84.6875 117.089844 85.113281 116.667969 C 85.535156 116.246094 86.105469 116.007812 86.703125 116.007812 L 187.070312 116.007812 C 187.667969 116.007812 188.238281 116.246094 188.660156 116.667969 C 189.082031 117.089844 189.320312 117.660156 189.320312 118.257812 L 189.320312 133.421875 C 189.320312 134.015625 189.082031 134.589844 188.660156 135.011719 C 188.238281 135.433594 187.667969 135.671875 187.070312 135.671875 Z M 187.070312 135.671875"/></clipPath><clipPath id="4962628626"><path clip-rule="nonzero" d="M 0.40625 0.0078125 L 105.320312 0.0078125 L 105.320312 19.671875 L 0.40625 19.671875 Z M 0.40625 0.0078125"/></clipPath><clipPath id="d60173cb47"><path clip-rule="nonzero" d="M 103.070312 19.671875 L 2.703125 19.671875 C 2.105469 19.671875 1.535156 19.433594 1.113281 19.011719 C 0.6875 18.589844 0.453125 18.015625 0.453125 17.421875 L 0.453125 2.257812 C 0.453125 1.660156 0.6875 1.089844 1.113281 0.667969 C 1.535156 0.246094 2.105469 0.0078125 2.703125 0.0078125 L 103.070312 0.0078125 C 103.667969 0.0078125 104.238281 0.246094 104.660156 0.667969 C 105.082031 1.089844 105.320312 1.660156 105.320312 2.257812 L 105.320312 17.421875 C 105.320312 18.015625 105.082031 18.589844 104.660156 19.011719 C 104.238281 19.433594 103.667969 19.671875 103.070312 19.671875 Z M 103.070312 19.671875"/></clipPath><clipPath id="fc0cfd8e0f"><rect height="20" y="0" width="106" x="0"/></clipPath><clipPath id="ba8970f4aa"><path clip-rule="nonzero" d="M 0.0390625 44 L 75 44 L 75 164 L 0.0390625 164 Z M 0.0390625 44"/></clipPath><clipPath id="e8ce948180"><rect height="180" y="0" width="79" x="0"/></clipPath><clipPath id="76a4cfc888"><path clip-rule="nonzero" d="M 146.03125 173 L 232.28125 173 L 232.28125 260.328125 L 146.03125 260.328125 Z M 146.03125 173"/></clipPath><clipPath id="7e9a5eff4a"><path clip-rule="nonzero" d="M 146.03125 144.078125 L 173 144.078125 L 173 220 L 146.03125 220 Z M 146.03125 144.078125"/></clipPath></defs><g clip-path="url(#2a12b5f544)"><g clip-path="url(#cec6ab01a0)"><g transform="matrix(1, 0, 0, 1, 111, 142)"><g clip-path="url(#338f8e0934)"><g clip-path="url(#d2bde20683)"><g clip-path="url(#6b6cdf23f1)"><path fill-rule="nonzero" fill-opacity="1" d="M 0.0585938 0.945312 L 26.363281 0.945312 L 26.363281 116.949219 L 0.0585938 116.949219 Z M 0.0585938 0.945312" fill="#003024"/></g></g></g></g></g></g><g clip-path="url(#4d311d39b8)"><g clip-path="url(#69bcb52915)"><g transform="matrix(1, 0, 0, 1, 84, 116)"><g clip-path="url(#fc0cfd8e0f)"><g clip-path="url(#4962628626)"><g clip-path="url(#d60173cb47)"><path fill-rule="nonzero" fill-opacity="1" d="M 105.320312 0.0078125 L 105.320312 19.671875 L 0.484375 19.671875 L 0.484375 0.0078125 Z M 105.320312 0.0078125" fill="#003024"/></g></g></g></g></g></g><g transform="matrix(1, 0, 0, 1, 203, 64)"><g clip-path="url(#e8ce948180)"><g clip-path="url(#ba8970f4aa)"><g fill-opacity="1" fill="#201c18"><g transform="translate(0.0518271, 163.98613)"><g><path d="M 54.828125 -66.328125 C 61.097656 -63.429688 65.898438 -59.21875 69.234375 -53.6875 C 72.566406 -48.164062 74.234375 -41.867188 74.234375 -34.796875 C 74.234375 -27.328125 72.46875 -21.003906 68.9375 -15.828125 C 65.40625 -10.648438 60.820312 -6.71875 55.1875 -4.03125 C 49.5625 -1.34375 43.5625 0 37.1875 0 C 37.1875 0 37.140625 0 37.046875 0 L 37.046875 -21.515625 C 37.140625 -21.515625 37.1875 -21.515625 37.1875 -21.515625 C 41.175781 -21.515625 44.660156 -22.734375 47.640625 -25.171875 C 50.628906 -27.609375 52.125 -30.816406 52.125 -34.796875 C 52.125 -37.785156 51.351562 -40.328125 49.8125 -42.421875 C 48.269531 -44.515625 46.351562 -46.15625 44.0625 -47.34375 C 41.769531 -48.539062 39.476562 -49.191406 37.1875 -49.296875 C 36.695312 -49.296875 34.707031 -49.46875 31.21875 -49.8125 C 27.726562 -50.164062 23.796875 -51.335938 19.421875 -53.328125 C 13.242188 -56.210938 8.460938 -60.21875 5.078125 -65.34375 C 1.691406 -70.476562 0 -76.53125 0 -83.5 C 0 -90.96875 1.765625 -97.390625 5.296875 -102.765625 C 8.835938 -108.148438 13.445312 -112.285156 19.125 -115.171875 C 24.800781 -118.054688 30.820312 -119.5 37.1875 -119.5 C 44.0625 -119.5 50.238281 -118.078125 55.71875 -115.234375 C 61.195312 -112.398438 65.550781 -108.414062 68.78125 -103.28125 C 72.019531 -98.15625 73.691406 -92.207031 73.796875 -85.4375 C 73.890625 -85.238281 73.757812 -84.988281 73.40625 -84.6875 C 73.0625 -84.394531 72.640625 -84.25 72.140625 -84.25 L 53.46875 -84.25 C 53.070312 -84.25 52.695312 -84.394531 52.34375 -84.6875 C 52 -84.988281 51.828125 -85.238281 51.828125 -85.4375 C 51.734375 -89.71875 50.238281 -92.878906 47.34375 -94.921875 C 44.457031 -96.960938 41.070312 -97.984375 37.1875 -97.984375 C 33.101562 -97.984375 29.59375 -96.765625 26.65625 -94.328125 C 23.71875 -91.890625 22.25 -88.28125 22.25 -83.5 C 22.25 -79.21875 23.789062 -75.957031 26.875 -73.71875 C 29.96875 -71.476562 33.40625 -70.359375 37.1875 -70.359375 C 37.488281 -70.359375 38.484375 -70.304688 40.171875 -70.203125 C 41.867188 -70.109375 44.035156 -69.785156 46.671875 -69.234375 C 49.316406 -68.679688 52.035156 -67.710938 54.828125 -66.328125 Z M 54.828125 -66.328125"/></g></g></g></g></g></g><g clip-path="url(#76a4cfc888)"><path fill-rule="evenodd" fill-opacity="1" d="M 189.195312 173.371094 C 213.15625 173.371094 232.566406 192.78125 232.566406 216.742188 C 232.566406 240.707031 213.15625 260.117188 189.195312 260.117188 C 166.859375 260.117188 148.464844 243.230469 146.082031 221.53125 L 172.96875 221.53125 C 175.042969 228.535156 181.53125 233.675781 189.195312 233.675781 C 198.535156 233.675781 206.105469 226.105469 206.105469 216.765625 C 206.105469 207.425781 197.167969 199.855469 189.195312 199.855469 C 183.675781 199.855469 179.359375 201.53125 176.316406 204.40625 L 176.316406 174.785156 C 180.398438 173.769531 185.042969 173.371094 189.195312 173.371094 Z M 189.195312 173.371094" fill="#003024"/></g><g clip-path="url(#7e9a5eff4a)"><path fill-rule="evenodd" fill-opacity="1" d="M 146.082031 144.078125 L 166.578125 144.078125 C 170.089844 144.078125 172.945312 146.953125 172.945312 150.46875 L 172.945312 219.125 L 146.082031 219.125 Z M 146.082031 144.078125" fill="#201c18"/></g></svg>