<svg xmlns="http://www.w3.org/2000/svg" width="800" height="600" viewBox="0 0 800 600">
  <rect width="800" height="600" fill="#ecfdf5" />
  <rect x="150" y="150" width="500" height="300" rx="20" fill="#d1fae5" />
  
  <!-- Stock chart -->
  <polyline points="200,350 250,300 300,320 350,250 400,270 450,200 500,230 550,180 600,220" 
    fill="none" stroke="#059669" stroke-width="5" />
  
  <!-- Candlesticks -->
  <rect x="250" y="280" width="10" height="40" fill="#059669" />
  <rect x="250" y="270" width="10" height="10" fill="#059669" />
  <rect x="250" y="320" width="10" height="10" fill="#059669" />
  
  <rect x="350" y="230" width="10" height="40" fill="#059669" />
  <rect x="350" y="220" width="10" height="10" fill="#059669" />
  <rect x="350" y="270" width="10" height="10" fill="#059669" />
  
  <rect x="450" y="180" width="10" height="40" fill="#059669" />
  <rect x="450" y="170" width="10" height="10" fill="#059669" />
  <rect x="450" y="220" width="10" height="10" fill="#059669" />
  
  <rect x="550" y="160" width="10" height="40" fill="#059669" />
  <rect x="550" y="150" width="10" height="10" fill="#059669" />
  <rect x="550" y="200" width="10" height="10" fill="#059669" />
  
  <!-- Title -->
  <text x="400" y="420" font-family="Arial" font-size="24" font-weight="bold" fill="#065f46" text-anchor="middle">Stock Trading Fundamentals</text>
  <text x="400" y="450" font-family="Arial" font-size="18" fill="#059669" text-anchor="middle">Master the markets</text>
</svg>