<svg xmlns="http://www.w3.org/2000/svg" xmlns:xlink="http://www.w3.org/1999/xlink" width="500" zoomAndPan="magnify" viewBox="0 0 375 374.999991" height="500" preserveAspectRatio="xMidYMid meet" version="1.0"><defs><g/><clipPath id="2bc4b1e3bf"><rect x="0" width="302" y="0" height="57"/></clipPath><clipPath id="0119ba012d"><rect x="0" width="240" y="0" height="17"/></clipPath><clipPath id="cfa07141cf"><path d="M 115.828125 112.5 L 142.132812 112.5 L 142.132812 228.605469 L 115.828125 228.605469 Z M 115.828125 112.5 " clip-rule="nonzero"/></clipPath><clipPath id="68d64a393f"><path d="M 117.328125 112.5 L 140.632812 112.5 C 141.027344 112.5 141.410156 112.660156 141.691406 112.941406 C 141.972656 113.222656 142.132812 113.605469 142.132812 114 L 142.132812 227.046875 C 142.132812 227.445312 141.972656 227.828125 141.691406 228.109375 C 141.410156 228.390625 141.027344 228.546875 140.632812 228.546875 L 117.328125 228.546875 C 116.929688 228.546875 116.546875 228.390625 116.265625 228.109375 C 115.984375 227.828125 115.828125 227.445312 115.828125 227.046875 L 115.828125 114 C 115.828125 113.605469 115.984375 113.222656 116.265625 112.941406 C 116.546875 112.660156 116.929688 112.5 117.328125 112.5 Z M 117.328125 112.5 " clip-rule="nonzero"/></clipPath><clipPath id="1ac4b7db5f"><path d="M 0.828125 0.5 L 27.132812 0.5 L 27.132812 116.605469 L 0.828125 116.605469 Z M 0.828125 0.5 " clip-rule="nonzero"/></clipPath><clipPath id="3939ad36d6"><path d="M 2.328125 0.5 L 25.632812 0.5 C 26.027344 0.5 26.410156 0.660156 26.691406 0.941406 C 26.972656 1.222656 27.132812 1.605469 27.132812 2 L 27.132812 115.046875 C 27.132812 115.445312 26.972656 115.828125 26.691406 116.109375 C 26.410156 116.390625 26.027344 116.546875 25.632812 116.546875 L 2.328125 116.546875 C 1.929688 116.546875 1.546875 116.390625 1.265625 116.109375 C 0.984375 115.828125 0.828125 115.445312 0.828125 115.046875 L 0.828125 2 C 0.828125 1.605469 0.984375 1.222656 1.265625 0.941406 C 1.546875 0.660156 1.929688 0.5 2.328125 0.5 Z M 2.328125 0.5 " clip-rule="nonzero"/></clipPath><clipPath id="fb7bf2518a"><rect x="0" width="28" y="0" height="117"/></clipPath><clipPath id="449d6eba78"><path d="M 89.175781 85.5625 L 194.089844 85.5625 L 194.089844 105.226562 L 89.175781 105.226562 Z M 89.175781 85.5625 " clip-rule="nonzero"/></clipPath><clipPath id="68e9e49567"><path d="M 191.839844 105.226562 L 91.46875 105.226562 C 90.871094 105.226562 90.300781 104.988281 89.878906 104.566406 C 89.457031 104.144531 89.21875 103.574219 89.21875 102.976562 L 89.21875 87.8125 C 89.21875 87.21875 89.457031 86.644531 89.878906 86.222656 C 90.300781 85.800781 90.871094 85.5625 91.46875 85.5625 L 191.839844 85.5625 C 192.433594 85.5625 193.007812 85.800781 193.429688 86.222656 C 193.851562 86.644531 194.089844 87.21875 194.089844 87.8125 L 194.089844 102.976562 C 194.089844 103.574219 193.851562 104.144531 193.429688 104.566406 C 193.007812 104.988281 192.433594 105.226562 191.839844 105.226562 Z M 191.839844 105.226562 " clip-rule="nonzero"/></clipPath><clipPath id="1a0d689a16"><path d="M 0.175781 0.5625 L 105.089844 0.5625 L 105.089844 20.226562 L 0.175781 20.226562 Z M 0.175781 0.5625 " clip-rule="nonzero"/></clipPath><clipPath id="8087c7c08f"><path d="M 102.839844 20.226562 L 2.46875 20.226562 C 1.871094 20.226562 1.300781 19.988281 0.878906 19.566406 C 0.457031 19.144531 0.21875 18.574219 0.21875 17.976562 L 0.21875 2.8125 C 0.21875 2.21875 0.457031 1.644531 0.878906 1.222656 C 1.300781 0.800781 1.871094 0.5625 2.46875 0.5625 L 102.839844 0.5625 C 103.433594 0.5625 104.007812 0.800781 104.429688 1.222656 C 104.851562 1.644531 105.089844 2.21875 105.089844 2.8125 L 105.089844 17.976562 C 105.089844 18.574219 104.851562 19.144531 104.429688 19.566406 C 104.007812 19.988281 103.433594 20.226562 102.839844 20.226562 Z M 102.839844 20.226562 " clip-rule="nonzero"/></clipPath><clipPath id="796bcbd2d3"><rect x="0" width="106" y="0" height="21"/></clipPath><clipPath id="86f9b8f198"><path d="M 0.601562 45 L 76 45 L 76 165 L 0.601562 165 Z M 0.601562 45 " clip-rule="nonzero"/></clipPath><clipPath id="378d1dec5f"><rect x="0" width="80" y="0" height="181"/></clipPath><clipPath id="f7e70c5538"><path d="M 150.796875 142 L 237.046875 142 L 237.046875 229.882812 L 150.796875 229.882812 Z M 150.796875 142 " clip-rule="nonzero"/></clipPath><clipPath id="dc09543e60"><path d="M 150.796875 113.632812 L 178 113.632812 L 178 189 L 150.796875 189 Z M 150.796875 113.632812 " clip-rule="nonzero"/></clipPath></defs><g transform="matrix(1, 0, 0, 1, 39, 232)"><g clip-path="url(#2bc4b1e3bf)"><g fill="#201c18" fill-opacity="1"><g transform="translate(1.061501, 45.732182)"><g><path d="M 0.6875 -27.828125 L 0.6875 -34.109375 L 19.140625 -34.109375 L 19.140625 -27.828125 L 13.59375 -27.828125 L 13.59375 0 L 6.21875 0 L 6.21875 -27.828125 Z M 0.6875 -27.828125 "/></g></g></g><g fill="#201c18" fill-opacity="1"><g transform="translate(24.782533, 45.732182)"><g><path d="M 14.8125 -34.109375 L 22.1875 -34.109375 L 22.1875 -6.4375 C 22.1875 -1.789062 20.007812 0.53125 15.65625 0.53125 L 9.125 0.53125 C 4.757812 0.53125 2.578125 -1.789062 2.578125 -6.4375 L 2.578125 -34.109375 L 9.96875 -34.109375 L 9.96875 -5.796875 C 9.96875 -5.515625 10.0625 -5.269531 10.25 -5.0625 C 10.445312 -4.851562 10.6875 -4.75 10.96875 -4.75 L 13.8125 -4.75 C 14.09375 -4.75 14.328125 -4.851562 14.515625 -5.0625 C 14.710938 -5.269531 14.8125 -5.515625 14.8125 -5.796875 Z M 14.8125 -34.109375 "/></g></g></g><g fill="#201c18" fill-opacity="1"><g transform="translate(53.247632, 45.732182)"><g><path d="M 9.96875 0 L 2.578125 0 L 2.578125 -27.671875 C 2.578125 -32.316406 4.757812 -34.640625 9.125 -34.640625 L 13.015625 -34.640625 C 15.585938 -34.640625 17.414062 -33.796875 18.5 -32.109375 C 19.519531 -33.796875 21.347656 -34.640625 23.984375 -34.640625 L 27.890625 -34.640625 C 32.242188 -34.640625 34.421875 -32.316406 34.421875 -27.671875 L 34.421875 0 L 27.046875 0 L 27.046875 -28.3125 C 27.046875 -28.59375 26.945312 -28.835938 26.75 -29.046875 C 26.5625 -29.253906 26.328125 -29.359375 26.046875 -29.359375 L 23.203125 -29.359375 C 22.921875 -29.359375 22.679688 -29.253906 22.484375 -29.046875 C 22.285156 -28.835938 22.1875 -28.59375 22.1875 -28.3125 L 22.1875 0 L 14.8125 0 L 14.8125 -28.3125 C 14.8125 -28.59375 14.710938 -28.835938 14.515625 -29.046875 C 14.328125 -29.253906 14.09375 -29.359375 13.8125 -29.359375 L 10.96875 -29.359375 C 10.6875 -29.359375 10.445312 -29.253906 10.25 -29.046875 C 10.0625 -28.835938 9.96875 -28.59375 9.96875 -28.3125 Z M 9.96875 0 "/></g></g></g><g fill="#201c18" fill-opacity="1"><g transform="translate(93.941861, 45.732182)"><g/></g></g><g fill="#201c18" fill-opacity="1"><g transform="translate(108.438343, 45.732182)"><g><path d="M 19.296875 -18.65625 C 21.578125 -17.851562 22.71875 -15.992188 22.71875 -13.078125 L 22.71875 -6.953125 C 22.71875 -2.316406 20.539062 0 16.1875 0 L 2.640625 0 L 2.640625 -34.109375 L 15.765625 -34.109375 C 20.117188 -34.109375 22.296875 -31.789062 22.296875 -27.15625 L 22.296875 -24.046875 C 22.296875 -21.234375 21.296875 -19.4375 19.296875 -18.65625 Z M 13.921875 -29.09375 L 10.015625 -29.09375 L 10.015625 -19.984375 L 13.921875 -19.984375 C 14.203125 -19.984375 14.4375 -20.085938 14.625 -20.296875 C 14.820312 -20.503906 14.921875 -20.75 14.921875 -21.03125 L 14.921875 -28.046875 C 14.921875 -28.328125 14.820312 -28.570312 14.625 -28.78125 C 14.4375 -28.988281 14.203125 -29.09375 13.921875 -29.09375 Z M 15.34375 -6.109375 L 15.34375 -13.765625 C 15.34375 -14.046875 15.242188 -14.289062 15.046875 -14.5 C 14.859375 -14.707031 14.625 -14.8125 14.34375 -14.8125 L 10.015625 -14.8125 L 10.015625 -5.0625 L 14.34375 -5.0625 C 14.625 -5.0625 14.859375 -5.164062 15.046875 -5.375 C 15.242188 -5.582031 15.34375 -5.828125 15.34375 -6.109375 Z M 15.34375 -6.109375 "/></g></g></g><g fill="#201c18" fill-opacity="1"><g transform="translate(137.430553, 45.732182)"><g><path d="M 10.015625 -34.109375 L 10.015625 0 L 2.640625 0 L 2.640625 -34.109375 Z M 10.015625 -34.109375 "/></g></g></g><g fill="#201c18" fill-opacity="1"><g transform="translate(154.140923, 45.732182)"><g/></g></g><g fill="#201c18" fill-opacity="1"><g transform="translate(168.637405, 45.732182)"><g><path d="M 21.5625 -25.140625 L 14.546875 -25.140625 L 14.546875 -27.828125 C 14.546875 -28.109375 14.445312 -28.351562 14.25 -28.5625 C 14.0625 -28.78125 13.828125 -28.890625 13.546875 -28.890625 L 10.65625 -28.890625 C 10.375 -28.890625 10.132812 -28.78125 9.9375 -28.5625 C 9.738281 -28.351562 9.640625 -28.109375 9.640625 -27.828125 L 9.640625 -21.765625 C 9.640625 -21.484375 9.738281 -21.238281 9.9375 -21.03125 C 10.132812 -20.820312 10.375 -20.71875 10.65625 -20.71875 L 15.390625 -20.71875 C 19.753906 -20.644531 21.9375 -18.328125 21.9375 -13.765625 L 21.9375 -6.4375 C 21.9375 -1.789062 19.753906 0.53125 15.390625 0.53125 L 9.171875 0.53125 C 4.816406 0.53125 2.640625 -1.789062 2.640625 -6.4375 L 2.640625 -9.96875 L 9.640625 -9.96875 L 9.640625 -6.171875 C 9.640625 -5.890625 9.738281 -5.640625 9.9375 -5.421875 C 10.132812 -5.210938 10.375 -5.109375 10.65625 -5.109375 L 13.921875 -5.109375 C 14.203125 -5.109375 14.4375 -5.210938 14.625 -5.421875 C 14.820312 -5.640625 14.921875 -5.890625 14.921875 -6.171875 L 14.921875 -12.859375 C 14.921875 -13.140625 14.820312 -13.382812 14.625 -13.59375 C 14.4375 -13.8125 14.203125 -13.921875 13.921875 -13.921875 L 9.171875 -13.921875 C 4.816406 -13.921875 2.640625 -16.238281 2.640625 -20.875 L 2.640625 -27.671875 C 2.640625 -32.316406 4.816406 -34.640625 9.171875 -34.640625 L 15.03125 -34.640625 C 19.382812 -34.640625 21.5625 -32.316406 21.5625 -27.671875 Z M 21.5625 -25.140625 "/></g></g></g><g fill="#201c18" fill-opacity="1"><g transform="translate(196.6281, 45.732182)"><g><path d="M 10.015625 -34.109375 L 10.015625 0 L 2.640625 0 L 2.640625 -34.109375 Z M 10.015625 -34.109375 "/></g></g></g><g fill="#201c18" fill-opacity="1"><g transform="translate(213.338482, 45.732182)"><g><path d="M 23.875 -34.109375 L 18.078125 -18.453125 L 24.984375 0 L 17.453125 0 L 12.390625 -13.5 L 10.015625 -13.5 L 10.015625 0 L 2.640625 0 L 2.640625 -34.109375 L 10.015625 -34.109375 L 10.015625 -19.828125 L 11.8125 -19.828125 L 17.140625 -34.109375 Z M 23.875 -34.109375 "/></g></g></g><g fill="#201c18" fill-opacity="1"><g transform="translate(242.067123, 45.732182)"><g><path d="M 10.015625 -13.390625 L 10.015625 0 L 2.640625 0 L 2.640625 -34.109375 L 10.015625 -34.109375 L 10.015625 -19.828125 L 15.875 -19.828125 L 15.875 -34.109375 L 23.25 -34.109375 L 23.25 0 L 15.875 0 L 15.875 -13.390625 Z M 10.015625 -13.390625 "/></g></g></g><g fill="#201c18" fill-opacity="1"><g transform="translate(271.797292, 45.732182)"><g><path d="M 22.71875 -27.671875 L 22.71875 -6.4375 C 22.71875 -1.789062 20.539062 0.53125 16.1875 0.53125 L 9.171875 0.53125 C 4.816406 0.53125 2.640625 -1.789062 2.640625 -6.4375 L 2.640625 -27.671875 C 2.640625 -32.316406 4.816406 -34.640625 9.171875 -34.640625 L 16.1875 -34.640625 C 20.539062 -34.640625 22.71875 -32.316406 22.71875 -27.671875 Z M 15.34375 -5.59375 L 15.34375 -28.578125 C 15.34375 -28.859375 15.242188 -29.101562 15.046875 -29.3125 C 14.859375 -29.519531 14.625 -29.625 14.34375 -29.625 L 11.015625 -29.625 C 10.734375 -29.625 10.492188 -29.519531 10.296875 -29.3125 C 10.109375 -29.101562 10.015625 -28.859375 10.015625 -28.578125 L 10.015625 -5.59375 C 10.015625 -5.3125 10.109375 -5.0625 10.296875 -4.84375 C 10.492188 -4.632812 10.734375 -4.53125 11.015625 -4.53125 L 14.34375 -4.53125 C 14.625 -4.53125 14.859375 -4.632812 15.046875 -4.84375 C 15.242188 -5.0625 15.34375 -5.3125 15.34375 -5.59375 Z M 15.34375 -5.59375 "/></g></g></g></g></g><g transform="matrix(1, 0, 0, 1, 72, 284)"><g clip-path="url(#0119ba012d)"><g fill="#003024" fill-opacity="1"><g transform="translate(0.155525, 13.291085)"><g><path d="M 4.5 0 L 3.21875 0 L 3.21875 -8.84375 L 0.328125 -8.84375 L 0.328125 -9.765625 L 7.4375 -9.765625 L 7.4375 -8.84375 L 4.5 -8.84375 Z M 4.5 0 "/></g></g></g><g fill="#003024" fill-opacity="1"><g transform="translate(14.906745, 13.291085)"><g><path d="M 8.421875 0 L 7.171875 0 L 7.171875 -4.609375 L 2.421875 -4.609375 L 2.421875 0 L 1.171875 0 L 1.171875 -8.890625 C 1.171875 -8.898438 1.15625 -8.96875 1.125 -9.09375 C 1.09375 -9.226562 1.0625 -9.367188 1.03125 -9.515625 C 1 -9.671875 0.984375 -9.753906 0.984375 -9.765625 L 2.421875 -9.765625 L 2.421875 -5.53125 L 7.171875 -5.53125 L 7.171875 -9.765625 L 8.421875 -9.765625 Z M 8.421875 0 "/></g></g></g><g fill="#003024" fill-opacity="1"><g transform="translate(31.483011, 13.291085)"><g><path d="M 2.421875 0 L 1.171875 0 L 1.171875 -8.890625 C 1.171875 -8.898438 1.15625 -8.96875 1.125 -9.09375 C 1.09375 -9.226562 1.0625 -9.367188 1.03125 -9.515625 C 1 -9.671875 0.984375 -9.753906 0.984375 -9.765625 L 2.421875 -9.765625 Z M 2.421875 0 "/></g></g></g><g fill="#003024" fill-opacity="1"><g transform="translate(42.074192, 13.291085)"><g><path d="M 8.421875 0.0625 L 7.625 0.0625 L 2.1875 -8.25 L 2.1875 0 L 1.171875 0 L 1.171875 -8.890625 C 1.171875 -8.898438 1.15625 -8.96875 1.125 -9.09375 C 1.09375 -9.226562 1.0625 -9.367188 1.03125 -9.515625 C 1 -9.671875 0.984375 -9.753906 0.984375 -9.765625 L 2.640625 -9.765625 L 7.390625 -2.453125 L 7.390625 -9.765625 L 8.421875 -9.765625 Z M 8.421875 0.0625 "/></g></g></g><g fill="#003024" fill-opacity="1"><g transform="translate(58.650458, 13.291085)"><g><path d="M 7.828125 0 L 6.265625 0 L 2.40625 -5.09375 L 2.40625 0 L 1.15625 0 L 1.15625 -8.890625 C 1.15625 -8.898438 1.140625 -8.96875 1.109375 -9.09375 C 1.078125 -9.226562 1.046875 -9.367188 1.015625 -9.515625 C 0.984375 -9.671875 0.96875 -9.753906 0.96875 -9.765625 L 2.40625 -9.765625 L 2.40625 -5.40625 L 6.28125 -9.765625 L 7.578125 -9.765625 L 3.734375 -5.421875 Z M 7.828125 0 "/></g></g></g><g fill="#003024" fill-opacity="1"><g transform="translate(73.482187, 13.291085)"><g/></g></g><g fill="#003024" fill-opacity="1"><g transform="translate(83.563422, 13.291085)"><g><path d="M 3.796875 0 L 1.140625 0 L 1.140625 -8.890625 C 1.140625 -8.898438 1.125 -8.96875 1.09375 -9.09375 C 1.0625 -9.226562 1.03125 -9.367188 1 -9.515625 C 0.96875 -9.671875 0.953125 -9.753906 0.953125 -9.765625 L 4.21875 -9.765625 C 6.195312 -9.765625 7.1875 -9.007812 7.1875 -7.5 C 7.1875 -6.96875 7.035156 -6.492188 6.734375 -6.078125 C 6.429688 -5.671875 6.03125 -5.421875 5.53125 -5.328125 C 6.1875 -5.234375 6.695312 -4.945312 7.0625 -4.46875 C 7.4375 -3.988281 7.625 -3.410156 7.625 -2.734375 C 7.625 -2.179688 7.519531 -1.710938 7.3125 -1.328125 C 7.101562 -0.953125 6.800781 -0.671875 6.40625 -0.484375 C 6.019531 -0.304688 5.625 -0.179688 5.21875 -0.109375 C 4.8125 -0.0351562 4.335938 0 3.796875 0 Z M 2.390625 -5.734375 L 3.828125 -5.734375 C 4.484375 -5.734375 4.988281 -5.863281 5.34375 -6.125 C 5.695312 -6.394531 5.875 -6.84375 5.875 -7.46875 C 5.875 -8.382812 5.304688 -8.84375 4.171875 -8.84375 L 2.390625 -8.84375 Z M 2.390625 -0.921875 L 3.875 -0.921875 C 4.65625 -0.921875 5.253906 -1.066406 5.671875 -1.359375 C 6.085938 -1.660156 6.296875 -2.1875 6.296875 -2.9375 C 6.296875 -3.570312 6.0625 -4.039062 5.59375 -4.34375 C 5.125 -4.65625 4.550781 -4.8125 3.875 -4.8125 L 2.390625 -4.8125 Z M 2.390625 -0.921875 "/></g></g></g><g fill="#003024" fill-opacity="1"><g transform="translate(98.797737, 13.291085)"><g><path d="M 7.28125 -3.46875 L 7.28125 -9.765625 L 8.328125 -9.765625 L 8.328125 -3.46875 C 8.328125 -2.332031 8.007812 -1.441406 7.375 -0.796875 C 6.738281 -0.160156 5.851562 0.15625 4.71875 0.15625 C 3.570312 0.15625 2.691406 -0.132812 2.078125 -0.71875 C 1.460938 -1.300781 1.15625 -2.15625 1.15625 -3.28125 L 1.15625 -8.890625 L 0.953125 -9.765625 L 2.421875 -9.765625 L 2.421875 -3.28125 C 2.421875 -2.488281 2.613281 -1.867188 3 -1.421875 C 3.394531 -0.984375 3.984375 -0.765625 4.765625 -0.765625 C 5.578125 -0.765625 6.195312 -1.007812 6.625 -1.5 C 7.0625 -1.988281 7.28125 -2.644531 7.28125 -3.46875 Z M 7.28125 -3.46875 "/></g></g></g><g fill="#003024" fill-opacity="1"><g transform="translate(115.280062, 13.291085)"><g><path d="M 2.421875 0 L 1.171875 0 L 1.171875 -8.890625 C 1.171875 -8.898438 1.15625 -8.96875 1.125 -9.09375 C 1.09375 -9.226562 1.0625 -9.367188 1.03125 -9.515625 C 1 -9.671875 0.984375 -9.753906 0.984375 -9.765625 L 2.421875 -9.765625 Z M 2.421875 0 "/></g></g></g><g fill="#003024" fill-opacity="1"><g transform="translate(125.871244, 13.291085)"><g><path d="M 6.515625 0 L 1.15625 0 L 1.15625 -8.890625 C 1.15625 -8.898438 1.140625 -8.96875 1.109375 -9.09375 C 1.078125 -9.226562 1.046875 -9.367188 1.015625 -9.515625 C 0.984375 -9.671875 0.96875 -9.753906 0.96875 -9.765625 L 2.40625 -9.765625 L 2.40625 -0.921875 L 6.515625 -0.921875 Z M 6.515625 0 "/></g></g></g><g fill="#003024" fill-opacity="1"><g transform="translate(139.763617, 13.291085)"><g><path d="M 4.328125 0 L 1.15625 0 L 1.15625 -8.890625 C 1.15625 -8.898438 1.140625 -8.96875 1.109375 -9.09375 C 1.078125 -9.226562 1.046875 -9.367188 1.015625 -9.515625 C 0.984375 -9.671875 0.96875 -9.753906 0.96875 -9.765625 L 3.46875 -9.765625 C 7 -9.765625 8.765625 -8.128906 8.765625 -4.859375 C 8.765625 -3.390625 8.390625 -2.210938 7.640625 -1.328125 C 6.890625 -0.441406 5.785156 0 4.328125 0 Z M 2.40625 -0.921875 L 4.171875 -0.921875 C 5.316406 -0.921875 6.148438 -1.28125 6.671875 -2 C 7.203125 -2.726562 7.46875 -3.691406 7.46875 -4.890625 C 7.46875 -6.273438 7.128906 -7.28125 6.453125 -7.90625 C 5.773438 -8.53125 4.75 -8.84375 3.375 -8.84375 L 2.40625 -8.84375 Z M 2.40625 -0.921875 "/></g></g></g><g fill="#003024" fill-opacity="1"><g transform="translate(156.13859, 13.291085)"><g/></g></g><g fill="#003024" fill-opacity="1"><g transform="translate(166.219815, 13.291085)"><g><path d="M 0.421875 -0.5625 L 0.90625 -1.671875 C 1.207031 -1.410156 1.566406 -1.203125 1.984375 -1.046875 C 2.410156 -0.890625 2.8125 -0.8125 3.1875 -0.8125 C 3.695312 -0.8125 4.15625 -0.953125 4.5625 -1.234375 C 4.96875 -1.523438 5.171875 -1.941406 5.171875 -2.484375 C 5.171875 -2.953125 5.015625 -3.34375 4.703125 -3.65625 C 4.390625 -3.976562 4.015625 -4.234375 3.578125 -4.421875 C 3.140625 -4.617188 2.703125 -4.820312 2.265625 -5.03125 C 1.835938 -5.25 1.46875 -5.550781 1.15625 -5.9375 C 0.851562 -6.320312 0.703125 -6.796875 0.703125 -7.359375 C 0.703125 -8.148438 1.003906 -8.769531 1.609375 -9.21875 C 2.210938 -9.675781 2.929688 -9.90625 3.765625 -9.90625 C 4.628906 -9.90625 5.46875 -9.664062 6.28125 -9.1875 L 5.65625 -8.28125 C 5.03125 -8.726562 4.394531 -8.953125 3.75 -8.953125 C 3.238281 -8.953125 2.828125 -8.828125 2.515625 -8.578125 C 2.203125 -8.328125 2.046875 -7.957031 2.046875 -7.46875 C 2.046875 -7.1875 2.125 -6.9375 2.28125 -6.71875 C 2.445312 -6.5 2.660156 -6.3125 2.921875 -6.15625 C 3.179688 -6.007812 3.46875 -5.863281 3.78125 -5.71875 C 4.101562 -5.570312 4.425781 -5.410156 4.75 -5.234375 C 5.070312 -5.066406 5.363281 -4.875 5.625 -4.65625 C 5.882812 -4.4375 6.097656 -4.15625 6.265625 -3.8125 C 6.429688 -3.476562 6.515625 -3.09375 6.515625 -2.65625 C 6.515625 -1.738281 6.191406 -1.039062 5.546875 -0.5625 C 4.898438 -0.0820312 4.101562 0.15625 3.15625 0.15625 C 2.28125 0.15625 1.367188 -0.0820312 0.421875 -0.5625 Z M 0.421875 -0.5625 "/></g></g></g><g fill="#003024" fill-opacity="1"><g transform="translate(180.13903, 13.291085)"><g><path d="M 7.5625 -1.671875 L 8.140625 -0.78125 C 7.785156 -0.476562 7.328125 -0.242188 6.765625 -0.078125 C 6.210938 0.078125 5.679688 0.15625 5.171875 0.15625 C 3.753906 0.15625 2.640625 -0.328125 1.828125 -1.296875 C 1.023438 -2.273438 0.625 -3.476562 0.625 -4.90625 C 0.625 -6.363281 1.03125 -7.5625 1.84375 -8.5 C 2.65625 -9.4375 3.769531 -9.90625 5.1875 -9.90625 C 5.71875 -9.90625 6.257812 -9.8125 6.8125 -9.625 C 7.375 -9.445312 7.8125 -9.1875 8.125 -8.84375 L 7.421875 -8.0625 C 7.171875 -8.34375 6.832031 -8.5625 6.40625 -8.71875 C 5.976562 -8.882812 5.566406 -8.96875 5.171875 -8.96875 C 4.609375 -8.96875 4.117188 -8.847656 3.703125 -8.609375 C 3.285156 -8.367188 2.953125 -8.046875 2.703125 -7.640625 C 2.460938 -7.234375 2.28125 -6.796875 2.15625 -6.328125 C 2.039062 -5.859375 1.984375 -5.359375 1.984375 -4.828125 C 1.984375 -4.296875 2.039062 -3.796875 2.15625 -3.328125 C 2.28125 -2.859375 2.46875 -2.4375 2.71875 -2.0625 C 2.96875 -1.6875 3.300781 -1.390625 3.71875 -1.171875 C 4.144531 -0.953125 4.632812 -0.84375 5.1875 -0.84375 C 5.59375 -0.84375 6.015625 -0.914062 6.453125 -1.0625 C 6.898438 -1.21875 7.269531 -1.421875 7.5625 -1.671875 Z M 7.5625 -1.671875 "/></g></g></g><g fill="#003024" fill-opacity="1"><g transform="translate(195.507531, 13.291085)"><g><path d="M 8.234375 0 L 6.859375 0 L 5.734375 -3.359375 L 2.515625 -3.359375 L 1.375 0 L 0.234375 0 L 3.640625 -9.765625 L 4.859375 -9.765625 Z M 5.421875 -4.265625 L 4.140625 -8.140625 L 2.8125 -4.265625 Z M 5.421875 -4.265625 "/></g></g></g><g fill="#003024" fill-opacity="1"><g transform="translate(210.96999, 13.291085)"><g><path d="M 6.515625 0 L 1.15625 0 L 1.15625 -8.890625 C 1.15625 -8.898438 1.140625 -8.96875 1.109375 -9.09375 C 1.078125 -9.226562 1.046875 -9.367188 1.015625 -9.515625 C 0.984375 -9.671875 0.96875 -9.753906 0.96875 -9.765625 L 2.40625 -9.765625 L 2.40625 -0.921875 L 6.515625 -0.921875 Z M 6.515625 0 "/></g></g></g><g fill="#003024" fill-opacity="1"><g transform="translate(224.862363, 13.291085)"><g><path d="M 6.828125 0 L 1.15625 0 L 1.15625 -8.890625 C 1.15625 -8.898438 1.140625 -8.96875 1.109375 -9.09375 C 1.078125 -9.226562 1.046875 -9.367188 1.015625 -9.515625 C 0.984375 -9.671875 0.96875 -9.753906 0.96875 -9.765625 L 6.828125 -9.765625 L 6.828125 -8.84375 L 2.40625 -8.84375 L 2.40625 -5.46875 L 5.84375 -5.46875 L 5.84375 -4.5625 L 2.40625 -4.5625 L 2.40625 -0.921875 L 6.828125 -0.921875 Z M 6.828125 0 "/></g></g></g></g></g><g clip-path="url(#cfa07141cf)"><g clip-path="url(#68d64a393f)"><g transform="matrix(1, 0, 0, 1, 115, 112)"><g clip-path="url(#fb7bf2518a)"><g clip-path="url(#1ac4b7db5f)"><g clip-path="url(#3939ad36d6)"><path fill="#003024" d="M 0.828125 0.5 L 27.132812 0.5 L 27.132812 116.503906 L 0.828125 116.503906 Z M 0.828125 0.5 " fill-opacity="1" fill-rule="nonzero"/></g></g></g></g></g></g><g clip-path="url(#449d6eba78)"><g clip-path="url(#68e9e49567)"><g transform="matrix(1, 0, 0, 1, 89, 85)"><g clip-path="url(#796bcbd2d3)"><g clip-path="url(#1a0d689a16)"><g clip-path="url(#8087c7c08f)"><path fill="#003024" d="M 105.089844 0.5625 L 105.089844 20.226562 L 0.25 20.226562 L 0.25 0.5625 Z M 105.089844 0.5625 " fill-opacity="1" fill-rule="nonzero"/></g></g></g></g></g></g><g transform="matrix(1, 0, 0, 1, 207, 33)"><g clip-path="url(#378d1dec5f)"><g clip-path="url(#86f9b8f198)"><g fill="#201c18" fill-opacity="1"><g transform="translate(0.819117, 164.542168)"><g><path d="M 54.828125 -66.328125 C 61.097656 -63.429688 65.898438 -59.21875 69.234375 -53.6875 C 72.566406 -48.164062 74.234375 -41.867188 74.234375 -34.796875 C 74.234375 -27.328125 72.46875 -21.003906 68.9375 -15.828125 C 65.40625 -10.648438 60.820312 -6.71875 55.1875 -4.03125 C 49.5625 -1.34375 43.5625 0 37.1875 0 C 37.1875 0 37.140625 0 37.046875 0 L 37.046875 -21.515625 C 37.140625 -21.515625 37.1875 -21.515625 37.1875 -21.515625 C 41.175781 -21.515625 44.660156 -22.734375 47.640625 -25.171875 C 50.628906 -27.609375 52.125 -30.816406 52.125 -34.796875 C 52.125 -37.785156 51.351562 -40.328125 49.8125 -42.421875 C 48.269531 -44.515625 46.351562 -46.15625 44.0625 -47.34375 C 41.769531 -48.539062 39.476562 -49.191406 37.1875 -49.296875 C 36.695312 -49.296875 34.707031 -49.46875 31.21875 -49.8125 C 27.726562 -50.164062 23.796875 -51.335938 19.421875 -53.328125 C 13.242188 -56.210938 8.460938 -60.21875 5.078125 -65.34375 C 1.691406 -70.476562 0 -76.53125 0 -83.5 C 0 -90.96875 1.765625 -97.390625 5.296875 -102.765625 C 8.835938 -108.148438 13.445312 -112.285156 19.125 -115.171875 C 24.800781 -118.054688 30.820312 -119.5 37.1875 -119.5 C 44.0625 -119.5 50.238281 -118.078125 55.71875 -115.234375 C 61.195312 -112.398438 65.550781 -108.414062 68.78125 -103.28125 C 72.019531 -98.15625 73.691406 -92.207031 73.796875 -85.4375 C 73.890625 -85.238281 73.757812 -84.988281 73.40625 -84.6875 C 73.0625 -84.394531 72.640625 -84.25 72.140625 -84.25 L 53.46875 -84.25 C 53.070312 -84.25 52.695312 -84.394531 52.34375 -84.6875 C 52 -84.988281 51.828125 -85.238281 51.828125 -85.4375 C 51.734375 -89.71875 50.238281 -92.878906 47.34375 -94.921875 C 44.457031 -96.960938 41.070312 -97.984375 37.1875 -97.984375 C 33.101562 -97.984375 29.59375 -96.765625 26.65625 -94.328125 C 23.71875 -91.890625 22.25 -88.28125 22.25 -83.5 C 22.25 -79.21875 23.789062 -75.957031 26.875 -73.71875 C 29.96875 -71.476562 33.40625 -70.359375 37.1875 -70.359375 C 37.488281 -70.359375 38.484375 -70.304688 40.171875 -70.203125 C 41.867188 -70.109375 44.035156 -69.785156 46.671875 -69.234375 C 49.316406 -68.679688 52.035156 -67.710938 54.828125 -66.328125 Z M 54.828125 -66.328125 "/></g></g></g></g></g></g><g clip-path="url(#f7e70c5538)"><path fill="#003024" d="M 193.960938 142.925781 C 217.925781 142.925781 237.335938 162.335938 237.335938 186.296875 C 237.335938 210.261719 217.925781 229.671875 193.960938 229.671875 C 171.625 229.671875 153.230469 212.785156 150.847656 191.085938 L 177.734375 191.085938 C 179.8125 198.089844 186.296875 203.234375 193.960938 203.234375 C 203.300781 203.234375 210.871094 195.660156 210.871094 186.324219 C 210.871094 176.984375 201.933594 169.410156 193.960938 169.410156 C 188.441406 169.410156 184.125 171.085938 181.085938 173.964844 L 181.085938 144.339844 C 185.164062 143.328125 189.8125 142.925781 193.960938 142.925781 Z M 193.960938 142.925781 " fill-opacity="1" fill-rule="evenodd"/></g><g clip-path="url(#dc09543e60)"><path fill="#201c18" d="M 150.847656 113.632812 L 171.34375 113.632812 C 174.859375 113.632812 177.710938 116.511719 177.710938 120.023438 L 177.710938 188.679688 L 150.847656 188.679688 Z M 150.847656 113.632812 " fill-opacity="1" fill-rule="evenodd"/></g></svg>