<svg xmlns="http://www.w3.org/2000/svg" xmlns:xlink="http://www.w3.org/1999/xlink" width="500" zoomAndPan="magnify" viewBox="0 0 375 374.999991" height="500" preserveAspectRatio="xMidYMid meet" version="1.0"><defs><g/><clipPath id="76f0d4b4ab"><rect x="0" width="303" y="0" height="57"/></clipPath></defs><g transform="matrix(1, 0, 0, 1, 38, 159)"><g clip-path="url(#76f0d4b4ab)"><g fill="#201c18" fill-opacity="1"><g transform="translate(1.362213, 44.967811)"><g><path d="M 0.6875 -27.828125 L 0.6875 -34.109375 L 19.140625 -34.109375 L 19.140625 -27.828125 L 13.59375 -27.828125 L 13.59375 0 L 6.21875 0 L 6.21875 -27.828125 Z M 0.6875 -27.828125 "/></g></g></g><g fill="#201c18" fill-opacity="1"><g transform="translate(25.083246, 44.967811)"><g><path d="M 14.8125 -34.109375 L 22.1875 -34.109375 L 22.1875 -6.4375 C 22.1875 -1.789062 20.007812 0.53125 15.65625 0.53125 L 9.125 0.53125 C 4.757812 0.53125 2.578125 -1.789062 2.578125 -6.4375 L 2.578125 -34.109375 L 9.96875 -34.109375 L 9.96875 -5.796875 C 9.96875 -5.515625 10.0625 -5.269531 10.25 -5.0625 C 10.445312 -4.851562 10.6875 -4.75 10.96875 -4.75 L 13.8125 -4.75 C 14.09375 -4.75 14.328125 -4.851562 14.515625 -5.0625 C 14.710938 -5.269531 14.8125 -5.515625 14.8125 -5.796875 Z M 14.8125 -34.109375 "/></g></g></g><g fill="#201c18" fill-opacity="1"><g transform="translate(53.548345, 44.967811)"><g><path d="M 9.96875 0 L 2.578125 0 L 2.578125 -27.671875 C 2.578125 -32.316406 4.757812 -34.640625 9.125 -34.640625 L 13.015625 -34.640625 C 15.585938 -34.640625 17.414062 -33.796875 18.5 -32.109375 C 19.519531 -33.796875 21.347656 -34.640625 23.984375 -34.640625 L 27.890625 -34.640625 C 32.242188 -34.640625 34.421875 -32.316406 34.421875 -27.671875 L 34.421875 0 L 27.046875 0 L 27.046875 -28.3125 C 27.046875 -28.59375 26.945312 -28.835938 26.75 -29.046875 C 26.5625 -29.253906 26.328125 -29.359375 26.046875 -29.359375 L 23.203125 -29.359375 C 22.921875 -29.359375 22.679688 -29.253906 22.484375 -29.046875 C 22.285156 -28.835938 22.1875 -28.59375 22.1875 -28.3125 L 22.1875 0 L 14.8125 0 L 14.8125 -28.3125 C 14.8125 -28.59375 14.710938 -28.835938 14.515625 -29.046875 C 14.328125 -29.253906 14.09375 -29.359375 13.8125 -29.359375 L 10.96875 -29.359375 C 10.6875 -29.359375 10.445312 -29.253906 10.25 -29.046875 C 10.0625 -28.835938 9.96875 -28.59375 9.96875 -28.3125 Z M 9.96875 0 "/></g></g></g><g fill="#201c18" fill-opacity="1"><g transform="translate(94.242574, 44.967811)"><g/></g></g><g fill="#201c18" fill-opacity="1"><g transform="translate(108.739056, 44.967811)"><g><path d="M 19.296875 -18.65625 C 21.578125 -17.851562 22.71875 -15.992188 22.71875 -13.078125 L 22.71875 -6.953125 C 22.71875 -2.316406 20.539062 0 16.1875 0 L 2.640625 0 L 2.640625 -34.109375 L 15.765625 -34.109375 C 20.117188 -34.109375 22.296875 -31.789062 22.296875 -27.15625 L 22.296875 -24.046875 C 22.296875 -21.234375 21.296875 -19.4375 19.296875 -18.65625 Z M 13.921875 -29.09375 L 10.015625 -29.09375 L 10.015625 -19.984375 L 13.921875 -19.984375 C 14.203125 -19.984375 14.4375 -20.085938 14.625 -20.296875 C 14.820312 -20.503906 14.921875 -20.75 14.921875 -21.03125 L 14.921875 -28.046875 C 14.921875 -28.328125 14.820312 -28.570312 14.625 -28.78125 C 14.4375 -28.988281 14.203125 -29.09375 13.921875 -29.09375 Z M 15.34375 -6.109375 L 15.34375 -13.765625 C 15.34375 -14.046875 15.242188 -14.289062 15.046875 -14.5 C 14.859375 -14.707031 14.625 -14.8125 14.34375 -14.8125 L 10.015625 -14.8125 L 10.015625 -5.0625 L 14.34375 -5.0625 C 14.625 -5.0625 14.859375 -5.164062 15.046875 -5.375 C 15.242188 -5.582031 15.34375 -5.828125 15.34375 -6.109375 Z M 15.34375 -6.109375 "/></g></g></g><g fill="#201c18" fill-opacity="1"><g transform="translate(137.731265, 44.967811)"><g><path d="M 10.015625 -34.109375 L 10.015625 0 L 2.640625 0 L 2.640625 -34.109375 Z M 10.015625 -34.109375 "/></g></g></g><g fill="#201c18" fill-opacity="1"><g transform="translate(154.441636, 44.967811)"><g/></g></g><g fill="#201c18" fill-opacity="1"><g transform="translate(168.938118, 44.967811)"><g><path d="M 21.5625 -25.140625 L 14.546875 -25.140625 L 14.546875 -27.828125 C 14.546875 -28.109375 14.445312 -28.351562 14.25 -28.5625 C 14.0625 -28.78125 13.828125 -28.890625 13.546875 -28.890625 L 10.65625 -28.890625 C 10.375 -28.890625 10.132812 -28.78125 9.9375 -28.5625 C 9.738281 -28.351562 9.640625 -28.109375 9.640625 -27.828125 L 9.640625 -21.765625 C 9.640625 -21.484375 9.738281 -21.238281 9.9375 -21.03125 C 10.132812 -20.820312 10.375 -20.71875 10.65625 -20.71875 L 15.390625 -20.71875 C 19.753906 -20.644531 21.9375 -18.328125 21.9375 -13.765625 L 21.9375 -6.4375 C 21.9375 -1.789062 19.753906 0.53125 15.390625 0.53125 L 9.171875 0.53125 C 4.816406 0.53125 2.640625 -1.789062 2.640625 -6.4375 L 2.640625 -9.96875 L 9.640625 -9.96875 L 9.640625 -6.171875 C 9.640625 -5.890625 9.738281 -5.640625 9.9375 -5.421875 C 10.132812 -5.210938 10.375 -5.109375 10.65625 -5.109375 L 13.921875 -5.109375 C 14.203125 -5.109375 14.4375 -5.210938 14.625 -5.421875 C 14.820312 -5.640625 14.921875 -5.890625 14.921875 -6.171875 L 14.921875 -12.859375 C 14.921875 -13.140625 14.820312 -13.382812 14.625 -13.59375 C 14.4375 -13.8125 14.203125 -13.921875 13.921875 -13.921875 L 9.171875 -13.921875 C 4.816406 -13.921875 2.640625 -16.238281 2.640625 -20.875 L 2.640625 -27.671875 C 2.640625 -32.316406 4.816406 -34.640625 9.171875 -34.640625 L 15.03125 -34.640625 C 19.382812 -34.640625 21.5625 -32.316406 21.5625 -27.671875 Z M 21.5625 -25.140625 "/></g></g></g><g fill="#201c18" fill-opacity="1"><g transform="translate(196.928813, 44.967811)"><g><path d="M 10.015625 -34.109375 L 10.015625 0 L 2.640625 0 L 2.640625 -34.109375 Z M 10.015625 -34.109375 "/></g></g></g><g fill="#201c18" fill-opacity="1"><g transform="translate(213.639195, 44.967811)"><g><path d="M 23.875 -34.109375 L 18.078125 -18.453125 L 24.984375 0 L 17.453125 0 L 12.390625 -13.5 L 10.015625 -13.5 L 10.015625 0 L 2.640625 0 L 2.640625 -34.109375 L 10.015625 -34.109375 L 10.015625 -19.828125 L 11.8125 -19.828125 L 17.140625 -34.109375 Z M 23.875 -34.109375 "/></g></g></g><g fill="#201c18" fill-opacity="1"><g transform="translate(242.367836, 44.967811)"><g><path d="M 10.015625 -13.390625 L 10.015625 0 L 2.640625 0 L 2.640625 -34.109375 L 10.015625 -34.109375 L 10.015625 -19.828125 L 15.875 -19.828125 L 15.875 -34.109375 L 23.25 -34.109375 L 23.25 0 L 15.875 0 L 15.875 -13.390625 Z M 10.015625 -13.390625 "/></g></g></g><g fill="#201c18" fill-opacity="1"><g transform="translate(272.098005, 44.967811)"><g><path d="M 22.71875 -27.671875 L 22.71875 -6.4375 C 22.71875 -1.789062 20.539062 0.53125 16.1875 0.53125 L 9.171875 0.53125 C 4.816406 0.53125 2.640625 -1.789062 2.640625 -6.4375 L 2.640625 -27.671875 C 2.640625 -32.316406 4.816406 -34.640625 9.171875 -34.640625 L 16.1875 -34.640625 C 20.539062 -34.640625 22.71875 -32.316406 22.71875 -27.671875 Z M 15.34375 -5.59375 L 15.34375 -28.578125 C 15.34375 -28.859375 15.242188 -29.101562 15.046875 -29.3125 C 14.859375 -29.519531 14.625 -29.625 14.34375 -29.625 L 11.015625 -29.625 C 10.734375 -29.625 10.492188 -29.519531 10.296875 -29.3125 C 10.109375 -29.101562 10.015625 -28.859375 10.015625 -28.578125 L 10.015625 -5.59375 C 10.015625 -5.3125 10.109375 -5.0625 10.296875 -4.84375 C 10.492188 -4.632812 10.734375 -4.53125 11.015625 -4.53125 L 14.34375 -4.53125 C 14.625 -4.53125 14.859375 -4.632812 15.046875 -4.84375 C 15.242188 -5.0625 15.34375 -5.3125 15.34375 -5.59375 Z M 15.34375 -5.59375 "/></g></g></g></g></g></svg>