<svg xmlns="http://www.w3.org/2000/svg" xmlns:xlink="http://www.w3.org/1999/xlink" width="500" zoomAndPan="magnify" viewBox="0 0 375 374.999991" height="500" preserveAspectRatio="xMidYMid meet" version="1.0"><defs><g/><clipPath id="aaefa20f82"><path d="M 0.28125 3 L 8 3 L 8 13 L 0.28125 13 Z M 0.28125 3 " clip-rule="nonzero"/></clipPath><clipPath id="5f1a3b7a89"><rect x="0" width="240" y="0" height="17"/></clipPath></defs><g transform="matrix(1, 0, 0, 1, 71, 179)"><g clip-path="url(#5f1a3b7a89)"><g clip-path="url(#aaefa20f82)"><g fill="#003024" fill-opacity="1"><g transform="translate(0.456238, 12.942342)"><g><path d="M 4.5 0 L 3.21875 0 L 3.21875 -8.84375 L 0.328125 -8.84375 L 0.328125 -9.765625 L 7.4375 -9.765625 L 7.4375 -8.84375 L 4.5 -8.84375 Z M 4.5 0 "/></g></g></g></g><g fill="#003024" fill-opacity="1"><g transform="translate(15.207458, 12.942342)"><g><path d="M 8.421875 0 L 7.171875 0 L 7.171875 -4.609375 L 2.421875 -4.609375 L 2.421875 0 L 1.171875 0 L 1.171875 -8.890625 C 1.171875 -8.898438 1.15625 -8.96875 1.125 -9.09375 C 1.09375 -9.226562 1.0625 -9.367188 1.03125 -9.515625 C 1 -9.671875 0.984375 -9.753906 0.984375 -9.765625 L 2.421875 -9.765625 L 2.421875 -5.53125 L 7.171875 -5.53125 L 7.171875 -9.765625 L 8.421875 -9.765625 Z M 8.421875 0 "/></g></g></g><g fill="#003024" fill-opacity="1"><g transform="translate(31.783724, 12.942342)"><g><path d="M 2.421875 0 L 1.171875 0 L 1.171875 -8.890625 C 1.171875 -8.898438 1.15625 -8.96875 1.125 -9.09375 C 1.09375 -9.226562 1.0625 -9.367188 1.03125 -9.515625 C 1 -9.671875 0.984375 -9.753906 0.984375 -9.765625 L 2.421875 -9.765625 Z M 2.421875 0 "/></g></g></g><g fill="#003024" fill-opacity="1"><g transform="translate(42.374905, 12.942342)"><g><path d="M 8.421875 0.0625 L 7.625 0.0625 L 2.1875 -8.25 L 2.1875 0 L 1.171875 0 L 1.171875 -8.890625 C 1.171875 -8.898438 1.15625 -8.96875 1.125 -9.09375 C 1.09375 -9.226562 1.0625 -9.367188 1.03125 -9.515625 C 1 -9.671875 0.984375 -9.753906 0.984375 -9.765625 L 2.640625 -9.765625 L 7.390625 -2.453125 L 7.390625 -9.765625 L 8.421875 -9.765625 Z M 8.421875 0.0625 "/></g></g></g><g fill="#003024" fill-opacity="1"><g transform="translate(58.951171, 12.942342)"><g><path d="M 7.828125 0 L 6.265625 0 L 2.40625 -5.09375 L 2.40625 0 L 1.15625 0 L 1.15625 -8.890625 C 1.15625 -8.898438 1.140625 -8.96875 1.109375 -9.09375 C 1.078125 -9.226562 1.046875 -9.367188 1.015625 -9.515625 C 0.984375 -9.671875 0.96875 -9.753906 0.96875 -9.765625 L 2.40625 -9.765625 L 2.40625 -5.40625 L 6.28125 -9.765625 L 7.578125 -9.765625 L 3.734375 -5.421875 Z M 7.828125 0 "/></g></g></g><g fill="#003024" fill-opacity="1"><g transform="translate(73.7829, 12.942342)"><g/></g></g><g fill="#003024" fill-opacity="1"><g transform="translate(83.864135, 12.942342)"><g><path d="M 3.796875 0 L 1.140625 0 L 1.140625 -8.890625 C 1.140625 -8.898438 1.125 -8.96875 1.09375 -9.09375 C 1.0625 -9.226562 1.03125 -9.367188 1 -9.515625 C 0.96875 -9.671875 0.953125 -9.753906 0.953125 -9.765625 L 4.21875 -9.765625 C 6.195312 -9.765625 7.1875 -9.007812 7.1875 -7.5 C 7.1875 -6.96875 7.035156 -6.492188 6.734375 -6.078125 C 6.429688 -5.671875 6.03125 -5.421875 5.53125 -5.328125 C 6.1875 -5.234375 6.695312 -4.945312 7.0625 -4.46875 C 7.4375 -3.988281 7.625 -3.410156 7.625 -2.734375 C 7.625 -2.179688 7.519531 -1.710938 7.3125 -1.328125 C 7.101562 -0.953125 6.800781 -0.671875 6.40625 -0.484375 C 6.019531 -0.304688 5.625 -0.179688 5.21875 -0.109375 C 4.8125 -0.0351562 4.335938 0 3.796875 0 Z M 2.390625 -5.734375 L 3.828125 -5.734375 C 4.484375 -5.734375 4.988281 -5.863281 5.34375 -6.125 C 5.695312 -6.394531 5.875 -6.84375 5.875 -7.46875 C 5.875 -8.382812 5.304688 -8.84375 4.171875 -8.84375 L 2.390625 -8.84375 Z M 2.390625 -0.921875 L 3.875 -0.921875 C 4.65625 -0.921875 5.253906 -1.066406 5.671875 -1.359375 C 6.085938 -1.660156 6.296875 -2.1875 6.296875 -2.9375 C 6.296875 -3.570312 6.0625 -4.039062 5.59375 -4.34375 C 5.125 -4.65625 4.550781 -4.8125 3.875 -4.8125 L 2.390625 -4.8125 Z M 2.390625 -0.921875 "/></g></g></g><g fill="#003024" fill-opacity="1"><g transform="translate(99.09845, 12.942342)"><g><path d="M 7.28125 -3.46875 L 7.28125 -9.765625 L 8.328125 -9.765625 L 8.328125 -3.46875 C 8.328125 -2.332031 8.007812 -1.441406 7.375 -0.796875 C 6.738281 -0.160156 5.851562 0.15625 4.71875 0.15625 C 3.570312 0.15625 2.691406 -0.132812 2.078125 -0.71875 C 1.460938 -1.300781 1.15625 -2.15625 1.15625 -3.28125 L 1.15625 -8.890625 L 0.953125 -9.765625 L 2.421875 -9.765625 L 2.421875 -3.28125 C 2.421875 -2.488281 2.613281 -1.867188 3 -1.421875 C 3.394531 -0.984375 3.984375 -0.765625 4.765625 -0.765625 C 5.578125 -0.765625 6.195312 -1.007812 6.625 -1.5 C 7.0625 -1.988281 7.28125 -2.644531 7.28125 -3.46875 Z M 7.28125 -3.46875 "/></g></g></g><g fill="#003024" fill-opacity="1"><g transform="translate(115.580775, 12.942342)"><g><path d="M 2.421875 0 L 1.171875 0 L 1.171875 -8.890625 C 1.171875 -8.898438 1.15625 -8.96875 1.125 -9.09375 C 1.09375 -9.226562 1.0625 -9.367188 1.03125 -9.515625 C 1 -9.671875 0.984375 -9.753906 0.984375 -9.765625 L 2.421875 -9.765625 Z M 2.421875 0 "/></g></g></g><g fill="#003024" fill-opacity="1"><g transform="translate(126.171957, 12.942342)"><g><path d="M 6.515625 0 L 1.15625 0 L 1.15625 -8.890625 C 1.15625 -8.898438 1.140625 -8.96875 1.109375 -9.09375 C 1.078125 -9.226562 1.046875 -9.367188 1.015625 -9.515625 C 0.984375 -9.671875 0.96875 -9.753906 0.96875 -9.765625 L 2.40625 -9.765625 L 2.40625 -0.921875 L 6.515625 -0.921875 Z M 6.515625 0 "/></g></g></g><g fill="#003024" fill-opacity="1"><g transform="translate(140.06433, 12.942342)"><g><path d="M 4.328125 0 L 1.15625 0 L 1.15625 -8.890625 C 1.15625 -8.898438 1.140625 -8.96875 1.109375 -9.09375 C 1.078125 -9.226562 1.046875 -9.367188 1.015625 -9.515625 C 0.984375 -9.671875 0.96875 -9.753906 0.96875 -9.765625 L 3.46875 -9.765625 C 7 -9.765625 8.765625 -8.128906 8.765625 -4.859375 C 8.765625 -3.390625 8.390625 -2.210938 7.640625 -1.328125 C 6.890625 -0.441406 5.785156 0 4.328125 0 Z M 2.40625 -0.921875 L 4.171875 -0.921875 C 5.316406 -0.921875 6.148438 -1.28125 6.671875 -2 C 7.203125 -2.726562 7.46875 -3.691406 7.46875 -4.890625 C 7.46875 -6.273438 7.128906 -7.28125 6.453125 -7.90625 C 5.773438 -8.53125 4.75 -8.84375 3.375 -8.84375 L 2.40625 -8.84375 Z M 2.40625 -0.921875 "/></g></g></g><g fill="#003024" fill-opacity="1"><g transform="translate(156.439303, 12.942342)"><g/></g></g><g fill="#003024" fill-opacity="1"><g transform="translate(166.520528, 12.942342)"><g><path d="M 0.421875 -0.5625 L 0.90625 -1.671875 C 1.207031 -1.410156 1.566406 -1.203125 1.984375 -1.046875 C 2.410156 -0.890625 2.8125 -0.8125 3.1875 -0.8125 C 3.695312 -0.8125 4.15625 -0.953125 4.5625 -1.234375 C 4.96875 -1.523438 5.171875 -1.941406 5.171875 -2.484375 C 5.171875 -2.953125 5.015625 -3.34375 4.703125 -3.65625 C 4.390625 -3.976562 4.015625 -4.234375 3.578125 -4.421875 C 3.140625 -4.617188 2.703125 -4.820312 2.265625 -5.03125 C 1.835938 -5.25 1.46875 -5.550781 1.15625 -5.9375 C 0.851562 -6.320312 0.703125 -6.796875 0.703125 -7.359375 C 0.703125 -8.148438 1.003906 -8.769531 1.609375 -9.21875 C 2.210938 -9.675781 2.929688 -9.90625 3.765625 -9.90625 C 4.628906 -9.90625 5.46875 -9.664062 6.28125 -9.1875 L 5.65625 -8.28125 C 5.03125 -8.726562 4.394531 -8.953125 3.75 -8.953125 C 3.238281 -8.953125 2.828125 -8.828125 2.515625 -8.578125 C 2.203125 -8.328125 2.046875 -7.957031 2.046875 -7.46875 C 2.046875 -7.1875 2.125 -6.9375 2.28125 -6.71875 C 2.445312 -6.5 2.660156 -6.3125 2.921875 -6.15625 C 3.179688 -6.007812 3.46875 -5.863281 3.78125 -5.71875 C 4.101562 -5.570312 4.425781 -5.410156 4.75 -5.234375 C 5.070312 -5.066406 5.363281 -4.875 5.625 -4.65625 C 5.882812 -4.4375 6.097656 -4.15625 6.265625 -3.8125 C 6.429688 -3.476562 6.515625 -3.09375 6.515625 -2.65625 C 6.515625 -1.738281 6.191406 -1.039062 5.546875 -0.5625 C 4.898438 -0.0820312 4.101562 0.15625 3.15625 0.15625 C 2.28125 0.15625 1.367188 -0.0820312 0.421875 -0.5625 Z M 0.421875 -0.5625 "/></g></g></g><g fill="#003024" fill-opacity="1"><g transform="translate(180.439743, 12.942342)"><g><path d="M 7.5625 -1.671875 L 8.140625 -0.78125 C 7.785156 -0.476562 7.328125 -0.242188 6.765625 -0.078125 C 6.210938 0.078125 5.679688 0.15625 5.171875 0.15625 C 3.753906 0.15625 2.640625 -0.328125 1.828125 -1.296875 C 1.023438 -2.273438 0.625 -3.476562 0.625 -4.90625 C 0.625 -6.363281 1.03125 -7.5625 1.84375 -8.5 C 2.65625 -9.4375 3.769531 -9.90625 5.1875 -9.90625 C 5.71875 -9.90625 6.257812 -9.8125 6.8125 -9.625 C 7.375 -9.445312 7.8125 -9.1875 8.125 -8.84375 L 7.421875 -8.0625 C 7.171875 -8.34375 6.832031 -8.5625 6.40625 -8.71875 C 5.976562 -8.882812 5.566406 -8.96875 5.171875 -8.96875 C 4.609375 -8.96875 4.117188 -8.847656 3.703125 -8.609375 C 3.285156 -8.367188 2.953125 -8.046875 2.703125 -7.640625 C 2.460938 -7.234375 2.28125 -6.796875 2.15625 -6.328125 C 2.039062 -5.859375 1.984375 -5.359375 1.984375 -4.828125 C 1.984375 -4.296875 2.039062 -3.796875 2.15625 -3.328125 C 2.28125 -2.859375 2.46875 -2.4375 2.71875 -2.0625 C 2.96875 -1.6875 3.300781 -1.390625 3.71875 -1.171875 C 4.144531 -0.953125 4.632812 -0.84375 5.1875 -0.84375 C 5.59375 -0.84375 6.015625 -0.914062 6.453125 -1.0625 C 6.898438 -1.21875 7.269531 -1.421875 7.5625 -1.671875 Z M 7.5625 -1.671875 "/></g></g></g><g fill="#003024" fill-opacity="1"><g transform="translate(195.808244, 12.942342)"><g><path d="M 8.234375 0 L 6.859375 0 L 5.734375 -3.359375 L 2.515625 -3.359375 L 1.375 0 L 0.234375 0 L 3.640625 -9.765625 L 4.859375 -9.765625 Z M 5.421875 -4.265625 L 4.140625 -8.140625 L 2.8125 -4.265625 Z M 5.421875 -4.265625 "/></g></g></g><g fill="#003024" fill-opacity="1"><g transform="translate(211.270703, 12.942342)"><g><path d="M 6.515625 0 L 1.15625 0 L 1.15625 -8.890625 C 1.15625 -8.898438 1.140625 -8.96875 1.109375 -9.09375 C 1.078125 -9.226562 1.046875 -9.367188 1.015625 -9.515625 C 0.984375 -9.671875 0.96875 -9.753906 0.96875 -9.765625 L 2.40625 -9.765625 L 2.40625 -0.921875 L 6.515625 -0.921875 Z M 6.515625 0 "/></g></g></g><g fill="#003024" fill-opacity="1"><g transform="translate(225.163076, 12.942342)"><g><path d="M 6.828125 0 L 1.15625 0 L 1.15625 -8.890625 C 1.15625 -8.898438 1.140625 -8.96875 1.109375 -9.09375 C 1.078125 -9.226562 1.046875 -9.367188 1.015625 -9.515625 C 0.984375 -9.671875 0.96875 -9.753906 0.96875 -9.765625 L 6.828125 -9.765625 L 6.828125 -8.84375 L 2.40625 -8.84375 L 2.40625 -5.46875 L 5.84375 -5.46875 L 5.84375 -4.5625 L 2.40625 -4.5625 L 2.40625 -0.921875 L 6.828125 -0.921875 Z M 6.828125 0 "/></g></g></g></g></g></svg>