<svg xmlns="http://www.w3.org/2000/svg" xmlns:xlink="http://www.w3.org/1999/xlink" width="2560" zoomAndPan="magnify" viewBox="0 0 1920 1079.999946" height="1440" preserveAspectRatio="xMidYMid meet" version="1.0"><defs><g/><clipPath id="0c63f29f86"><path d="M 90 191 L 176 191 L 176 277 L 90 277 Z M 90 191 " clip-rule="nonzero"/></clipPath><clipPath id="79fc8f7341"><path d="M 86.3125 203.757812 L 164.296875 187.417969 L 180.640625 265.402344 L 102.652344 281.742188 Z M 86.3125 203.757812 " clip-rule="nonzero"/></clipPath><clipPath id="2abb2ae3c1"><path d="M 86.3125 203.757812 L 164.296875 187.417969 L 180.640625 265.402344 L 102.652344 281.742188 Z M 86.3125 203.757812 " clip-rule="nonzero"/></clipPath><clipPath id="b6a040af04"><path d="M 86.3125 203.757812 L 164.296875 187.417969 L 180.640625 265.402344 L 102.652344 281.742188 Z M 86.3125 203.757812 " clip-rule="nonzero"/></clipPath><clipPath id="59dc2ece90"><path d="M 0.761719 0.679688 L 1477.480469 0.679688 L 1477.480469 215 L 0.761719 215 Z M 0.761719 0.679688 " clip-rule="nonzero"/></clipPath><clipPath id="a664447fb9"><rect x="0" width="1478" y="0" height="215"/></clipPath><clipPath id="a930aaeb1f"><rect x="0" width="1081" y="0" height="97"/></clipPath><clipPath id="2c69e938df"><rect x="0" width="1478" y="0" height="282"/></clipPath></defs><rect x="-192" width="2304" fill="#ffffff" y="-107.999995" height="1295.999935" fill-opacity="1"/><rect x="-192" width="2304" fill="#ffffff" y="-107.999995" height="1295.999935" fill-opacity="1"/><g transform="matrix(1, 0, 0, 1, 221, 391)"><g clip-path="url(#2c69e938df)"><g clip-path="url(#0c63f29f86)"><g clip-path="url(#79fc8f7341)"><g clip-path="url(#2abb2ae3c1)"><g clip-path="url(#b6a040af04)"><path fill="#c7f1d1" d="M 169.96875 215.382812 L 174.53125 237.148438 C 178.660156 256.855469 172.015625 267.019531 152.308594 271.148438 L 130.546875 275.710938 C 110.839844 279.839844 100.671875 273.195312 96.542969 253.488281 L 91.984375 231.726562 C 87.855469 212.019531 94.5 201.851562 114.203125 197.722656 L 135.96875 193.164062 C 155.675781 189.035156 165.839844 195.675781 169.96875 215.382812 Z M 169.96875 215.382812 " fill-opacity="1" fill-rule="nonzero"/><path fill="#37c956" d="M 135.96875 193.164062 L 114.203125 197.722656 C 94.5 201.851562 87.855469 212.019531 91.984375 231.726562 L 96.542969 253.488281 C 100.671875 273.195312 110.839844 279.839844 130.546875 275.710938 L 152.308594 271.148438 C 172.015625 267.019531 178.660156 256.855469 174.53125 237.148438 L 169.96875 215.382812 C 165.839844 195.675781 155.675781 189.035156 135.96875 193.164062 Z M 169.089844 238.289062 C 172.597656 255.023438 167.90625 262.199219 151.167969 265.707031 L 129.40625 270.269531 C 112.667969 273.773438 105.492188 269.085938 101.984375 252.347656 L 97.425781 230.585938 C 93.917969 213.847656 98.609375 206.671875 115.34375 203.164062 L 137.109375 198.605469 C 153.84375 195.097656 161.023438 199.789062 164.527344 216.523438 Z M 124.570312 226.808594 L 117.429688 237.753906 L 128.367188 244.925781 C 128.675781 245.128906 128.933594 245.382812 129.140625 245.6875 C 129.351562 245.992188 129.492188 246.324219 129.566406 246.683594 C 129.644531 247.046875 129.648438 247.40625 129.578125 247.769531 C 129.511719 248.132812 129.375 248.46875 129.171875 248.777344 C 128.972656 249.085938 128.71875 249.34375 128.414062 249.550781 C 128.109375 249.757812 127.777344 249.898438 127.417969 249.976562 C 127.054688 250.050781 126.695312 250.054688 126.332031 249.988281 C 125.96875 249.917969 125.632812 249.785156 125.324219 249.582031 L 114.390625 242.421875 C 114.085938 242.21875 113.804688 241.992188 113.542969 241.734375 C 113.28125 241.476562 113.046875 241.199219 112.84375 240.894531 C 112.636719 240.59375 112.460938 240.273438 112.316406 239.9375 C 112.175781 239.601562 112.066406 239.253906 111.992188 238.894531 C 111.914062 238.535156 111.875 238.175781 111.871094 237.808594 C 111.867188 237.441406 111.898438 237.078125 111.96875 236.71875 C 112.035156 236.359375 112.136719 236.007812 112.273438 235.667969 C 112.40625 235.328125 112.574219 235.007812 112.773438 234.699219 L 119.914062 223.765625 C 120.117188 223.457031 120.371094 223.199219 120.675781 222.992188 C 120.980469 222.785156 121.3125 222.640625 121.671875 222.566406 C 122.035156 222.492188 122.394531 222.488281 122.757812 222.554688 C 123.121094 222.625 123.457031 222.757812 123.765625 222.960938 C 124.074219 223.164062 124.332031 223.414062 124.539062 223.71875 C 124.746094 224.023438 124.890625 224.355469 124.964844 224.71875 C 125.039062 225.078125 125.042969 225.441406 124.976562 225.800781 C 124.90625 226.164062 124.773438 226.5 124.570312 226.808594 Z M 152.136719 226.449219 C 152.441406 226.648438 152.726562 226.878906 152.984375 227.132812 C 153.246094 227.390625 153.480469 227.671875 153.6875 227.972656 C 153.890625 228.277344 154.066406 228.597656 154.210938 228.933594 C 154.355469 229.269531 154.460938 229.617188 154.539062 229.976562 C 154.613281 230.332031 154.652344 230.695312 154.65625 231.0625 C 154.660156 231.425781 154.628906 231.789062 154.5625 232.148438 C 154.496094 232.511719 154.394531 232.859375 154.257812 233.199219 C 154.121094 233.539062 153.953125 233.863281 153.753906 234.171875 L 146.609375 245.101562 C 146.402344 245.398438 146.148438 245.644531 145.847656 245.839844 C 145.546875 246.035156 145.21875 246.167969 144.863281 246.238281 C 144.511719 246.308594 144.15625 246.308594 143.804688 246.238281 C 143.449219 246.171875 143.121094 246.039062 142.820312 245.84375 C 142.515625 245.648438 142.261719 245.402344 142.054688 245.105469 C 141.847656 244.8125 141.703125 244.488281 141.625 244.136719 C 141.542969 243.789062 141.53125 243.433594 141.585938 243.078125 C 141.640625 242.722656 141.761719 242.390625 141.949219 242.082031 L 149.089844 231.15625 L 138.15625 223.980469 C 137.847656 223.78125 137.589844 223.527344 137.378906 223.222656 C 137.171875 222.917969 137.03125 222.585938 136.957031 222.222656 C 136.878906 221.863281 136.878906 221.503906 136.945312 221.140625 C 137.011719 220.777344 137.148438 220.441406 137.351562 220.132812 C 137.550781 219.824219 137.804688 219.566406 138.109375 219.359375 C 138.414062 219.152344 138.746094 219.011719 139.105469 218.933594 C 139.46875 218.859375 139.828125 218.855469 140.191406 218.921875 C 140.554688 218.992188 140.886719 219.125 141.195312 219.328125 Z M 152.136719 226.449219 " fill-opacity="1" fill-rule="nonzero"/></g></g></g></g><g clip-path="url(#59dc2ece90)"><g transform="matrix(1, 0, 0, 1, 0, 0.000000000000056843)"><g clip-path="url(#a664447fb9)"><g fill="#000000" fill-opacity="1"><g transform="translate(0.987706, 160.701401)"><g><path d="M 156.5625 -106.90625 L 128.6875 0 L 97.171875 0 L 80.109375 -70.359375 L 62.4375 0 L 30.921875 0 L 3.8125 -106.90625 L 31.671875 -106.90625 L 47.0625 -29.09375 L 66.09375 -106.90625 L 94.734375 -106.90625 L 113 -29.09375 L 128.53125 -106.90625 Z M 156.5625 -106.90625 "/></g></g></g><g fill="#000000" fill-opacity="1"><g transform="translate(161.19936, 160.701401)"><g><path d="M 35.484375 -86.046875 L 35.484375 -64.421875 L 70.359375 -64.421875 L 70.359375 -44.3125 L 35.484375 -44.3125 L 35.484375 -20.859375 L 74.9375 -20.859375 L 74.9375 0 L 9.4375 0 L 9.4375 -106.90625 L 74.9375 -106.90625 L 74.9375 -86.046875 Z M 35.484375 -86.046875 "/></g></g></g><g fill="#000000" fill-opacity="1"><g transform="translate(243.589584, 160.701401)"><g><path d="M 74.171875 -54.828125 C 80.359375 -53.503906 85.332031 -50.429688 89.09375 -45.609375 C 92.851562 -40.785156 94.734375 -35.28125 94.734375 -29.09375 C 94.734375 -20.15625 91.609375 -13.070312 85.359375 -7.84375 C 79.117188 -2.613281 70.414062 0 59.25 0 L 9.4375 0 L 9.4375 -106.90625 L 57.5625 -106.90625 C 68.425781 -106.90625 76.929688 -104.414062 83.078125 -99.4375 C 89.222656 -94.46875 92.296875 -87.71875 92.296875 -79.1875 C 92.296875 -72.894531 90.644531 -67.664062 87.34375 -63.5 C 84.039062 -59.34375 79.648438 -56.453125 74.171875 -54.828125 Z M 35.484375 -63.65625 L 52.546875 -63.65625 C 56.804688 -63.65625 60.078125 -64.59375 62.359375 -66.46875 C 64.648438 -68.351562 65.796875 -71.125 65.796875 -74.78125 C 65.796875 -78.4375 64.648438 -81.226562 62.359375 -83.15625 C 60.078125 -85.082031 56.804688 -86.046875 52.546875 -86.046875 L 35.484375 -86.046875 Z M 54.671875 -21.015625 C 59.035156 -21.015625 62.410156 -22.003906 64.796875 -23.984375 C 67.179688 -25.960938 68.375 -28.832031 68.375 -32.59375 C 68.375 -36.34375 67.128906 -39.285156 64.640625 -41.421875 C 62.160156 -43.554688 58.738281 -44.625 54.375 -44.625 L 35.484375 -44.625 L 35.484375 -21.015625 Z M 54.671875 -21.015625 "/></g></g></g><g fill="#000000" fill-opacity="1"><g transform="translate(343.950336, 160.701401)"><g/></g></g><g fill="#000000" fill-opacity="1"><g transform="translate(376.236353, 160.701401)"><g><path d="M 49.5 -106.90625 C 60.769531 -106.90625 70.617188 -104.671875 79.046875 -100.203125 C 87.472656 -95.742188 93.992188 -89.476562 98.609375 -81.40625 C 103.234375 -73.332031 105.546875 -64.015625 105.546875 -53.453125 C 105.546875 -42.992188 103.234375 -33.703125 98.609375 -25.578125 C 93.992188 -17.460938 87.445312 -11.171875 78.96875 -6.703125 C 70.488281 -2.234375 60.664062 0 49.5 0 L 9.4375 0 L 9.4375 -106.90625 Z M 47.828125 -22.546875 C 57.671875 -22.546875 65.332031 -25.234375 70.8125 -30.609375 C 76.300781 -35.992188 79.046875 -43.609375 79.046875 -53.453125 C 79.046875 -63.304688 76.300781 -70.972656 70.8125 -76.453125 C 65.332031 -81.929688 57.671875 -84.671875 47.828125 -84.671875 L 35.484375 -84.671875 L 35.484375 -22.546875 Z M 47.828125 -22.546875 "/></g></g></g><g fill="#000000" fill-opacity="1"><g transform="translate(486.952998, 160.701401)"><g><path d="M 35.484375 -86.046875 L 35.484375 -64.421875 L 70.359375 -64.421875 L 70.359375 -44.3125 L 35.484375 -44.3125 L 35.484375 -20.859375 L 74.9375 -20.859375 L 74.9375 0 L 9.4375 0 L 9.4375 -106.90625 L 74.9375 -106.90625 L 74.9375 -86.046875 Z M 35.484375 -86.046875 "/></g></g></g><g fill="#000000" fill-opacity="1"><g transform="translate(569.343235, 160.701401)"><g><path d="M 109.8125 -106.90625 L 71.890625 0 L 39.296875 0 L 1.375 -106.90625 L 29.09375 -106.90625 L 55.59375 -26.1875 L 82.234375 -106.90625 Z M 109.8125 -106.90625 "/></g></g></g><g fill="#000000" fill-opacity="1"><g transform="translate(680.516733, 160.701401)"><g><path d="M 35.484375 -86.046875 L 35.484375 -64.421875 L 70.359375 -64.421875 L 70.359375 -44.3125 L 35.484375 -44.3125 L 35.484375 -20.859375 L 74.9375 -20.859375 L 74.9375 0 L 9.4375 0 L 9.4375 -106.90625 L 74.9375 -106.90625 L 74.9375 -86.046875 Z M 35.484375 -86.046875 "/></g></g></g><g fill="#000000" fill-opacity="1"><g transform="translate(762.90697, 160.701401)"><g><path d="M 35.484375 -20.109375 L 69.59375 -20.109375 L 69.59375 0 L 9.4375 0 L 9.4375 -106.90625 L 35.484375 -106.90625 Z M 35.484375 -20.109375 "/></g></g></g><g fill="#000000" fill-opacity="1"><g transform="translate(835.550481, 160.701401)"><g><path d="M 60 1.0625 C 49.945312 1.0625 40.734375 -1.269531 32.359375 -5.9375 C 23.984375 -10.601562 17.332031 -17.125 12.40625 -25.5 C 7.488281 -33.882812 5.03125 -43.304688 5.03125 -53.765625 C 5.03125 -64.222656 7.488281 -73.613281 12.40625 -81.9375 C 17.332031 -90.257812 23.984375 -96.753906 32.359375 -101.421875 C 40.734375 -106.097656 49.945312 -108.4375 60 -108.4375 C 70.050781 -108.4375 79.265625 -106.097656 87.640625 -101.421875 C 96.023438 -96.753906 102.625 -90.257812 107.4375 -81.9375 C 112.257812 -73.613281 114.671875 -64.222656 114.671875 -53.765625 C 114.671875 -43.304688 112.234375 -33.882812 107.359375 -25.5 C 102.492188 -17.125 95.894531 -10.601562 87.5625 -5.9375 C 79.238281 -1.269531 70.050781 1.0625 60 1.0625 Z M 60 -22.6875 C 68.53125 -22.6875 75.359375 -25.53125 80.484375 -31.21875 C 85.617188 -36.90625 88.1875 -44.421875 88.1875 -53.765625 C 88.1875 -63.203125 85.617188 -70.738281 80.484375 -76.375 C 75.359375 -82.007812 68.53125 -84.828125 60 -84.828125 C 51.375 -84.828125 44.492188 -82.035156 39.359375 -76.453125 C 34.234375 -70.867188 31.671875 -63.304688 31.671875 -53.765625 C 31.671875 -44.316406 34.234375 -36.773438 39.359375 -31.140625 C 44.492188 -25.503906 51.375 -22.6875 60 -22.6875 Z M 60 -22.6875 "/></g></g></g><g fill="#000000" fill-opacity="1"><g transform="translate(955.252359, 160.701401)"><g><path d="M 90.921875 -72.5 C 90.921875 -66.300781 89.5 -60.640625 86.65625 -55.515625 C 83.8125 -50.390625 79.441406 -46.25 73.546875 -43.09375 C 67.660156 -39.945312 60.351562 -38.375 51.625 -38.375 L 35.484375 -38.375 L 35.484375 0 L 9.4375 0 L 9.4375 -106.90625 L 51.625 -106.90625 C 60.15625 -106.90625 67.363281 -105.429688 73.25 -102.484375 C 79.144531 -99.546875 83.5625 -95.488281 86.5 -90.3125 C 89.445312 -85.132812 90.921875 -79.195312 90.921875 -72.5 Z M 49.65625 -59.09375 C 54.625 -59.09375 58.328125 -60.257812 60.765625 -62.59375 C 63.203125 -64.925781 64.421875 -68.226562 64.421875 -72.5 C 64.421875 -76.757812 63.203125 -80.054688 60.765625 -82.390625 C 58.328125 -84.722656 54.625 -85.890625 49.65625 -85.890625 L 35.484375 -85.890625 L 35.484375 -59.09375 Z M 49.65625 -59.09375 "/></g></g></g><g fill="#000000" fill-opacity="1"><g transform="translate(1050.282799, 160.701401)"><g><path d="M 130.515625 -106.90625 L 130.515625 0 L 104.46875 0 L 104.46875 -64.109375 L 80.5625 0 L 59.546875 0 L 35.484375 -64.265625 L 35.484375 0 L 9.4375 0 L 9.4375 -106.90625 L 40.203125 -106.90625 L 70.203125 -32.890625 L 99.90625 -106.90625 Z M 130.515625 -106.90625 "/></g></g></g><g fill="#000000" fill-opacity="1"><g transform="translate(1190.087296, 160.701401)"><g><path d="M 35.484375 -86.046875 L 35.484375 -64.421875 L 70.359375 -64.421875 L 70.359375 -44.3125 L 35.484375 -44.3125 L 35.484375 -20.859375 L 74.9375 -20.859375 L 74.9375 0 L 9.4375 0 L 9.4375 -106.90625 L 74.9375 -106.90625 L 74.9375 -86.046875 Z M 35.484375 -86.046875 "/></g></g></g><g fill="#000000" fill-opacity="1"><g transform="translate(1272.477532, 160.701401)"><g><path d="M 105.078125 0 L 79.046875 0 L 35.484375 -65.9375 L 35.484375 0 L 9.4375 0 L 9.4375 -106.90625 L 35.484375 -106.90625 L 79.046875 -40.65625 L 79.046875 -106.90625 L 105.078125 -106.90625 Z M 105.078125 0 "/></g></g></g><g fill="#000000" fill-opacity="1"><g transform="translate(1387.001516, 160.701401)"><g><path d="M 86.359375 -106.90625 L 86.359375 -86.046875 L 58.03125 -86.046875 L 58.03125 0 L 31.984375 0 L 31.984375 -86.046875 L 3.65625 -86.046875 L 3.65625 -106.90625 Z M 86.359375 -106.90625 "/></g></g></g></g></g></g><g transform="matrix(1, 0, 0, 1, 198, 184)"><g clip-path="url(#a930aaeb1f)"><g fill="#000000" fill-opacity="1"><g transform="translate(1.297744, 76.458786)"><g><path d="M 51.28125 0 L 43.59375 0 L 43.59375 -26.796875 L 14.375 -26.796875 L 14.375 0 L 6.734375 0 L 6.734375 -57.96875 L 14.375 -57.96875 L 14.375 -33.046875 L 43.59375 -33.046875 L 43.59375 -57.96875 L 51.28125 -57.96875 Z M 51.28125 0 "/></g></g></g><g fill="#000000" fill-opacity="1"><g transform="translate(58.27903, 76.458786)"><g><path d="M 46.78125 -51.6875 L 28.15625 -51.6875 L 28.15625 0 L 20.546875 0 L 20.546875 -51.6875 L 1.953125 -51.6875 L 1.953125 -57.96875 L 46.78125 -57.96875 Z M 46.78125 -51.6875 "/></g></g></g><g fill="#000000" fill-opacity="1"><g transform="translate(106.938106, 76.458786)"><g><path d="M 16.609375 -57.96875 L 35.5625 -10.671875 L 54.515625 -57.96875 L 64.421875 -57.96875 L 64.421875 0 L 56.78125 0 L 56.78125 -22.578125 L 57.5 -46.9375 L 38.46875 0 L 32.609375 0 L 13.625 -46.828125 L 14.375 -22.578125 L 14.375 0 L 6.734375 0 L 6.734375 -57.96875 Z M 16.609375 -57.96875 "/></g></g></g><g fill="#000000" fill-opacity="1"><g transform="translate(178.134865, 76.458786)"><g><path d="M 14.40625 -6.25 L 41.890625 -6.25 L 41.890625 0 L 6.734375 0 L 6.734375 -57.96875 L 14.40625 -57.96875 Z M 14.40625 -6.25 "/></g></g></g><g fill="#000000" fill-opacity="1"><g transform="translate(222.015626, 76.458786)"><g/></g></g><g fill="#000000" fill-opacity="1"><g transform="translate(242.203981, 76.458786)"><g><path d="M 49.375 -18.390625 C 48.65625 -12.265625 46.390625 -7.535156 42.578125 -4.203125 C 38.773438 -0.867188 33.710938 0.796875 27.390625 0.796875 C 20.546875 0.796875 15.054688 -1.65625 10.921875 -6.5625 C 6.796875 -11.476562 4.734375 -18.050781 4.734375 -26.28125 L 4.734375 -31.859375 C 4.734375 -37.242188 5.695312 -41.976562 7.625 -46.0625 C 9.550781 -50.15625 12.28125 -53.296875 15.8125 -55.484375 C 19.34375 -57.671875 23.429688 -58.765625 28.078125 -58.765625 C 34.234375 -58.765625 39.164062 -57.046875 42.875 -53.609375 C 46.59375 -50.171875 48.757812 -45.414062 49.375 -39.34375 L 41.6875 -39.34375 C 41.019531 -43.957031 39.578125 -47.300781 37.359375 -49.375 C 35.148438 -51.445312 32.054688 -52.484375 28.078125 -52.484375 C 23.191406 -52.484375 19.359375 -50.675781 16.578125 -47.0625 C 13.804688 -43.457031 12.421875 -38.320312 12.421875 -31.65625 L 12.421875 -26.046875 C 12.421875 -19.753906 13.734375 -14.75 16.359375 -11.03125 C 18.992188 -7.3125 22.671875 -5.453125 27.390625 -5.453125 C 31.640625 -5.453125 34.898438 -6.414062 37.171875 -8.34375 C 39.441406 -10.269531 40.945312 -13.617188 41.6875 -18.390625 Z M 49.375 -18.390625 "/></g></g></g><g fill="#000000" fill-opacity="1"><g transform="translate(295.282974, 76.458786)"><g><path d="M 23.8125 -25.84375 C 17.25 -27.726562 12.472656 -30.039062 9.484375 -32.78125 C 6.503906 -35.53125 5.015625 -38.925781 5.015625 -42.96875 C 5.015625 -47.53125 6.835938 -51.300781 10.484375 -54.28125 C 14.140625 -57.269531 18.890625 -58.765625 24.734375 -58.765625 C 28.710938 -58.765625 32.257812 -57.992188 35.375 -56.453125 C 38.5 -54.921875 40.914062 -52.800781 42.625 -50.09375 C 44.332031 -47.382812 45.1875 -44.425781 45.1875 -41.21875 L 37.515625 -41.21875 C 37.515625 -44.71875 36.394531 -47.46875 34.15625 -49.46875 C 31.925781 -51.476562 28.785156 -52.484375 24.734375 -52.484375 C 20.960938 -52.484375 18.019531 -51.648438 15.90625 -49.984375 C 13.789062 -48.328125 12.734375 -46.023438 12.734375 -43.078125 C 12.734375 -40.722656 13.734375 -38.726562 15.734375 -37.09375 C 17.742188 -35.457031 21.15625 -33.960938 25.96875 -32.609375 C 30.789062 -31.253906 34.5625 -29.757812 37.28125 -28.125 C 40.007812 -26.5 42.03125 -24.597656 43.34375 -22.421875 C 44.65625 -20.242188 45.3125 -17.679688 45.3125 -14.734375 C 45.3125 -10.035156 43.476562 -6.269531 39.8125 -3.4375 C 36.15625 -0.613281 31.257812 0.796875 25.125 0.796875 C 21.144531 0.796875 17.425781 0.0351562 13.96875 -1.484375 C 10.519531 -3.015625 7.859375 -5.109375 5.984375 -7.765625 C 4.117188 -10.421875 3.1875 -13.429688 3.1875 -16.796875 L 10.875 -16.796875 C 10.875 -13.296875 12.164062 -10.53125 14.75 -8.5 C 17.34375 -6.46875 20.800781 -5.453125 25.125 -5.453125 C 29.15625 -5.453125 32.242188 -6.273438 34.390625 -7.921875 C 36.546875 -9.566406 37.625 -11.804688 37.625 -14.640625 C 37.625 -17.484375 36.628906 -19.679688 34.640625 -21.234375 C 32.648438 -22.796875 29.039062 -24.332031 23.8125 -25.84375 Z M 23.8125 -25.84375 "/></g></g></g><g fill="#000000" fill-opacity="1"><g transform="translate(343.66335, 76.458786)"><g><path d="M 23.8125 -25.84375 C 17.25 -27.726562 12.472656 -30.039062 9.484375 -32.78125 C 6.503906 -35.53125 5.015625 -38.925781 5.015625 -42.96875 C 5.015625 -47.53125 6.835938 -51.300781 10.484375 -54.28125 C 14.140625 -57.269531 18.890625 -58.765625 24.734375 -58.765625 C 28.710938 -58.765625 32.257812 -57.992188 35.375 -56.453125 C 38.5 -54.921875 40.914062 -52.800781 42.625 -50.09375 C 44.332031 -47.382812 45.1875 -44.425781 45.1875 -41.21875 L 37.515625 -41.21875 C 37.515625 -44.71875 36.394531 -47.46875 34.15625 -49.46875 C 31.925781 -51.476562 28.785156 -52.484375 24.734375 -52.484375 C 20.960938 -52.484375 18.019531 -51.648438 15.90625 -49.984375 C 13.789062 -48.328125 12.734375 -46.023438 12.734375 -43.078125 C 12.734375 -40.722656 13.734375 -38.726562 15.734375 -37.09375 C 17.742188 -35.457031 21.15625 -33.960938 25.96875 -32.609375 C 30.789062 -31.253906 34.5625 -29.757812 37.28125 -28.125 C 40.007812 -26.5 42.03125 -24.597656 43.34375 -22.421875 C 44.65625 -20.242188 45.3125 -17.679688 45.3125 -14.734375 C 45.3125 -10.035156 43.476562 -6.269531 39.8125 -3.4375 C 36.15625 -0.613281 31.257812 0.796875 25.125 0.796875 C 21.144531 0.796875 17.425781 0.0351562 13.96875 -1.484375 C 10.519531 -3.015625 7.859375 -5.109375 5.984375 -7.765625 C 4.117188 -10.421875 3.1875 -13.429688 3.1875 -16.796875 L 10.875 -16.796875 C 10.875 -13.296875 12.164062 -10.53125 14.75 -8.5 C 17.34375 -6.46875 20.800781 -5.453125 25.125 -5.453125 C 29.15625 -5.453125 32.242188 -6.273438 34.390625 -7.921875 C 36.546875 -9.566406 37.625 -11.804688 37.625 -14.640625 C 37.625 -17.484375 36.628906 -19.679688 34.640625 -21.234375 C 32.648438 -22.796875 29.039062 -24.332031 23.8125 -25.84375 Z M 23.8125 -25.84375 "/></g></g></g><g fill="#000000" fill-opacity="1"><g transform="translate(392.043686, 76.458786)"><g/></g></g><g fill="#000000" fill-opacity="1"><g transform="translate(412.232001, 76.458786)"><g><path d="M 49.375 -18.390625 C 48.65625 -12.265625 46.390625 -7.535156 42.578125 -4.203125 C 38.773438 -0.867188 33.710938 0.796875 27.390625 0.796875 C 20.546875 0.796875 15.054688 -1.65625 10.921875 -6.5625 C 6.796875 -11.476562 4.734375 -18.050781 4.734375 -26.28125 L 4.734375 -31.859375 C 4.734375 -37.242188 5.695312 -41.976562 7.625 -46.0625 C 9.550781 -50.15625 12.28125 -53.296875 15.8125 -55.484375 C 19.34375 -57.671875 23.429688 -58.765625 28.078125 -58.765625 C 34.234375 -58.765625 39.164062 -57.046875 42.875 -53.609375 C 46.59375 -50.171875 48.757812 -45.414062 49.375 -39.34375 L 41.6875 -39.34375 C 41.019531 -43.957031 39.578125 -47.300781 37.359375 -49.375 C 35.148438 -51.445312 32.054688 -52.484375 28.078125 -52.484375 C 23.191406 -52.484375 19.359375 -50.675781 16.578125 -47.0625 C 13.804688 -43.457031 12.421875 -38.320312 12.421875 -31.65625 L 12.421875 -26.046875 C 12.421875 -19.753906 13.734375 -14.75 16.359375 -11.03125 C 18.992188 -7.3125 22.671875 -5.453125 27.390625 -5.453125 C 31.640625 -5.453125 34.898438 -6.414062 37.171875 -8.34375 C 39.441406 -10.269531 40.945312 -13.617188 41.6875 -18.390625 Z M 49.375 -18.390625 "/></g></g></g><g fill="#000000" fill-opacity="1"><g transform="translate(465.311034, 76.458786)"><g><path d="M 51.328125 -27.109375 C 51.328125 -21.429688 50.367188 -16.472656 48.453125 -12.234375 C 46.546875 -8.003906 43.835938 -4.773438 40.328125 -2.546875 C 36.828125 -0.316406 32.742188 0.796875 28.078125 0.796875 C 23.503906 0.796875 19.453125 -0.320312 15.921875 -2.5625 C 12.390625 -4.8125 9.648438 -8.007812 7.703125 -12.15625 C 5.753906 -16.3125 4.753906 -21.125 4.703125 -26.59375 L 4.703125 -30.78125 C 4.703125 -36.351562 5.671875 -41.273438 7.609375 -45.546875 C 9.546875 -49.828125 12.285156 -53.097656 15.828125 -55.359375 C 19.367188 -57.628906 23.421875 -58.765625 27.984375 -58.765625 C 32.628906 -58.765625 36.722656 -57.644531 40.265625 -55.40625 C 43.816406 -53.164062 46.546875 -49.914062 48.453125 -45.65625 C 50.367188 -41.394531 51.328125 -36.4375 51.328125 -30.78125 Z M 43.71875 -30.859375 C 43.71875 -37.734375 42.335938 -43.007812 39.578125 -46.6875 C 36.816406 -50.363281 32.953125 -52.203125 27.984375 -52.203125 C 23.160156 -52.203125 19.359375 -50.363281 16.578125 -46.6875 C 13.804688 -43.007812 12.378906 -37.90625 12.296875 -31.375 L 12.296875 -27.109375 C 12.296875 -20.453125 13.695312 -15.21875 16.5 -11.40625 C 19.300781 -7.59375 23.160156 -5.6875 28.078125 -5.6875 C 33.015625 -5.6875 36.832031 -7.484375 39.53125 -11.078125 C 42.238281 -14.679688 43.632812 -19.84375 43.71875 -26.5625 Z M 43.71875 -30.859375 "/></g></g></g><g fill="#000000" fill-opacity="1"><g transform="translate(521.376483, 76.458786)"><g><path d="M 16.609375 -57.96875 L 35.5625 -10.671875 L 54.515625 -57.96875 L 64.421875 -57.96875 L 64.421875 0 L 56.78125 0 L 56.78125 -22.578125 L 57.5 -46.9375 L 38.46875 0 L 32.609375 0 L 13.625 -46.828125 L 14.375 -22.578125 L 14.375 0 L 6.734375 0 L 6.734375 -57.96875 Z M 16.609375 -57.96875 "/></g></g></g><g fill="#000000" fill-opacity="1"><g transform="translate(592.573252, 76.458786)"><g><path d="M 14.375 -22.703125 L 14.375 0 L 6.734375 0 L 6.734375 -57.96875 L 28.109375 -57.96875 C 34.453125 -57.96875 39.421875 -56.347656 43.015625 -53.109375 C 46.617188 -49.878906 48.421875 -45.59375 48.421875 -40.25 C 48.421875 -34.625 46.660156 -30.289062 43.140625 -27.25 C 39.617188 -24.21875 34.582031 -22.703125 28.03125 -22.703125 Z M 14.375 -28.953125 L 28.109375 -28.953125 C 32.203125 -28.953125 35.335938 -29.910156 37.515625 -31.828125 C 39.691406 -33.753906 40.78125 -36.535156 40.78125 -40.171875 C 40.78125 -43.628906 39.691406 -46.390625 37.515625 -48.453125 C 35.335938 -50.523438 32.347656 -51.601562 28.546875 -51.6875 L 14.375 -51.6875 Z M 14.375 -28.953125 "/></g></g></g><g fill="#000000" fill-opacity="1"><g transform="translate(644.019653, 76.458786)"><g><path d="M 14.40625 -6.25 L 41.890625 -6.25 L 41.890625 0 L 6.734375 0 L 6.734375 -57.96875 L 14.40625 -57.96875 Z M 14.40625 -6.25 "/></g></g></g><g fill="#000000" fill-opacity="1"><g transform="translate(687.900414, 76.458786)"><g><path d="M 39.5 -26.796875 L 14.375 -26.796875 L 14.375 -6.25 L 43.5625 -6.25 L 43.5625 0 L 6.734375 0 L 6.734375 -57.96875 L 43.15625 -57.96875 L 43.15625 -51.6875 L 14.375 -51.6875 L 14.375 -33.046875 L 39.5 -33.046875 Z M 39.5 -26.796875 "/></g></g></g><g fill="#000000" fill-opacity="1"><g transform="translate(735.046359, 76.458786)"><g><path d="M 46.78125 -51.6875 L 28.15625 -51.6875 L 28.15625 0 L 20.546875 0 L 20.546875 -51.6875 L 1.953125 -51.6875 L 1.953125 -57.96875 L 46.78125 -57.96875 Z M 46.78125 -51.6875 "/></g></g></g><g fill="#000000" fill-opacity="1"><g transform="translate(783.705465, 76.458786)"><g><path d="M 39.5 -26.796875 L 14.375 -26.796875 L 14.375 -6.25 L 43.5625 -6.25 L 43.5625 0 L 6.734375 0 L 6.734375 -57.96875 L 43.15625 -57.96875 L 43.15625 -51.6875 L 14.375 -51.6875 L 14.375 -33.046875 L 39.5 -33.046875 Z M 39.5 -26.796875 "/></g></g></g><g fill="#000000" fill-opacity="1"><g transform="translate(830.055007, 76.458786)"><g/></g></g><g fill="#000000" fill-opacity="1"><g transform="translate(850.243362, 76.458786)"><g><path d="M 49.53125 -7.609375 C 47.570312 -4.796875 44.832031 -2.691406 41.3125 -1.296875 C 37.789062 0.0976562 33.695312 0.796875 29.03125 0.796875 C 24.300781 0.796875 20.101562 -0.3125 16.4375 -2.53125 C 12.78125 -4.75 9.945312 -7.898438 7.9375 -11.984375 C 5.9375 -16.066406 4.910156 -20.804688 4.859375 -26.203125 L 4.859375 -31.25 C 4.859375 -39.988281 6.894531 -46.757812 10.96875 -51.5625 C 15.039062 -56.363281 20.769531 -58.765625 28.15625 -58.765625 C 34.207031 -58.765625 39.078125 -57.21875 42.765625 -54.125 C 46.453125 -51.039062 48.707031 -46.65625 49.53125 -40.96875 L 41.890625 -40.96875 C 40.453125 -48.644531 35.882812 -52.484375 28.1875 -52.484375 C 23.0625 -52.484375 19.175781 -50.679688 16.53125 -47.078125 C 13.894531 -43.484375 12.566406 -38.273438 12.546875 -31.453125 L 12.546875 -26.71875 C 12.546875 -20.21875 14.03125 -15.046875 17 -11.203125 C 19.976562 -7.367188 24 -5.453125 29.0625 -5.453125 C 31.9375 -5.453125 34.445312 -5.769531 36.59375 -6.40625 C 38.738281 -7.039062 40.515625 -8.117188 41.921875 -9.640625 L 41.921875 -22.65625 L 28.515625 -22.65625 L 28.515625 -28.875 L 49.53125 -28.875 Z M 49.53125 -7.609375 "/></g></g></g><g fill="#000000" fill-opacity="1"><g transform="translate(905.791137, 76.458786)"><g><path d="M 47.546875 -57.96875 L 47.546875 -18.5625 C 47.515625 -13.09375 45.789062 -8.617188 42.375 -5.140625 C 38.96875 -1.660156 34.347656 0.289062 28.515625 0.71875 L 26.484375 0.796875 C 20.140625 0.796875 15.082031 -0.914062 11.3125 -4.34375 C 7.539062 -7.769531 5.628906 -12.476562 5.578125 -18.46875 L 5.578125 -57.96875 L 13.140625 -57.96875 L 13.140625 -18.71875 C 13.140625 -14.519531 14.289062 -11.257812 16.59375 -8.9375 C 18.90625 -6.613281 22.203125 -5.453125 26.484375 -5.453125 C 30.804688 -5.453125 34.113281 -6.609375 36.40625 -8.921875 C 38.707031 -11.234375 39.859375 -14.484375 39.859375 -18.671875 L 39.859375 -57.96875 Z M 47.546875 -57.96875 "/></g></g></g><g fill="#000000" fill-opacity="1"><g transform="translate(958.671049, 76.458786)"><g><path d="M 14.9375 0 L 7.28125 0 L 7.28125 -57.96875 L 14.9375 -57.96875 Z M 14.9375 0 "/></g></g></g><g fill="#000000" fill-opacity="1"><g transform="translate(980.850374, 76.458786)"><g><path d="M 6.734375 0 L 6.734375 -57.96875 L 23.09375 -57.96875 C 28.132812 -57.96875 32.59375 -56.851562 36.46875 -54.625 C 40.34375 -52.394531 43.335938 -49.222656 45.453125 -45.109375 C 47.566406 -40.992188 48.632812 -36.269531 48.65625 -30.9375 L 48.65625 -27.234375 C 48.65625 -21.765625 47.597656 -16.972656 45.484375 -12.859375 C 43.378906 -8.742188 40.367188 -5.582031 36.453125 -3.375 C 32.535156 -1.175781 27.976562 -0.0507812 22.78125 0 Z M 14.375 -51.6875 L 14.375 -6.25 L 22.421875 -6.25 C 28.304688 -6.25 32.890625 -8.078125 36.171875 -11.734375 C 39.453125 -15.398438 41.09375 -20.617188 41.09375 -27.390625 L 41.09375 -30.78125 C 41.09375 -37.363281 39.546875 -42.476562 36.453125 -46.125 C 33.359375 -49.78125 28.972656 -51.632812 23.296875 -51.6875 Z M 14.375 -51.6875 "/></g></g></g><g fill="#000000" fill-opacity="1"><g transform="translate(1034.327609, 76.458786)"><g><path d="M 39.5 -26.796875 L 14.375 -26.796875 L 14.375 -6.25 L 43.5625 -6.25 L 43.5625 0 L 6.734375 0 L 6.734375 -57.96875 L 43.15625 -57.96875 L 43.15625 -51.6875 L 14.375 -51.6875 L 14.375 -33.046875 L 39.5 -33.046875 Z M 39.5 -26.796875 "/></g></g></g></g></g></g></g></svg>